<svg viewBox="0 0 147 66" fill="none" xmlns="http://www.w3.org/2000/svg">
<path d="M16.5246 6.82464L16.5307 6.81151C16.9919 5.8312 18.0243 5.62378 18.7322 5.62378C19.6022 5.62378 20.5721 5.91211 21.2853 6.33162C21.6383 6.53927 22.0157 6.82958 22.2647 7.21715C22.538 7.64241 22.6798 8.247 22.3554 8.84927C19.7486 13.7416 18.6101 17.1006 17.7019 19.7804C17.6486 19.9376 17.5961 20.0925 17.5442 20.2452C16.598 23.0265 15.8001 25.1984 13.6319 27.5657C12.0942 29.2554 10.0778 29.9626 8.15136 29.9635L16.5246 6.82464ZM16.5246 6.82464C15.4508 9.19578 14.6113 11.3405 13.8959 13.2224C13.7481 13.611 13.6063 13.9868 13.4691 14.3501C12.9372 15.7591 12.4762 16.9804 12.0186 18.033C10.8437 20.7354 9.88436 21.8354 8.45007 22.0438C8.28556 22.0665 8.18479 22.0556 8.13212 22.0437C8.10605 22.0378 8.09073 22.0314 8.08316 22.0278C8.07579 22.0242 8.07277 22.0217 8.07192 22.021C8.07098 22.0203 8.06901 22.0185 8.06582 22.0142C8.06246 22.0097 8.0566 22.0008 8.04969 21.9854C8.03536 21.9537 8.01786 21.8971 8.01084 21.8104C7.99628 21.6308 8.0324 21.386 8.13853 21.1305C8.24298 20.879 8.39355 20.6696 8.55351 20.533C8.68635 20.4233 8.83763 20.2565 8.92804 20.0188C9.02776 19.7567 9.02498 19.481 8.941 19.2352C8.79437 18.806 8.44853 18.5809 8.26784 18.4822C7.84999 18.2541 7.29136 18.1514 6.73494 18.1514C5.88069 18.1514 4.81859 18.3882 3.83952 19.0722C2.84632 19.7662 1.99729 20.88 1.52814 22.5282L1.52806 22.5282M16.5246 6.82464L1.52806 22.5282M1.52806 22.5282L1.52467 22.5407M1.52806 22.5282L1.52467 22.5407M1.52467 22.5407C0.937555 24.7099 1.61726 26.6154 2.95931 27.9408M1.52467 22.5407L2.95931 27.9408M2.95931 27.9408C4.27175 29.2369 6.19089 29.9629 8.14743 29.9635L2.95931 27.9408ZM7.28568 18.9863L7.27552 18.9946C7.27907 18.9916 7.28246 18.9889 7.28568 18.9863Z" stroke="#E8949B" stroke-width="2" stroke-linejoin="round"/>
<path d="M6.01073 13.0865C4.91701 12.4078 4.22135 11.2502 4.22628 9.84964C4.23126 8.43527 4.94485 6.91481 6.37205 5.45381L6.01073 13.0865ZM6.01073 13.0865C6.04243 13.1105 6.07588 13.1328 6.11102 13.1532C6.84215 13.5789 7.70657 13.6681 8.41192 13.6681C9.0703 13.6681 9.71988 13.5773 10.2245 13.4389C10.4696 13.3717 10.7309 13.2798 10.9519 13.1521C11.0592 13.0901 11.2097 12.99 11.341 12.8375C11.4681 12.6901 11.6518 12.4011 11.6197 12.008C11.5767 11.2993 11.7908 9.79661 12.7796 8.49107C13.7316 7.23418 15.4858 6.04777 18.7601 6.04777C20.0826 6.04777 21.0012 6.40191 21.6407 6.88901C22.2872 7.38136 22.7173 8.06233 22.967 8.82059C23.2183 9.58399 23.2758 10.3968 23.1949 11.0914C23.1097 11.8231 22.8916 12.2699 22.7468 12.4252L22.745 12.4272C20.4636 14.8888 19.4891 17.5037 19.3512 19.6231C19.2828 20.6754 19.419 21.6403 19.7399 22.4078C20.0485 23.1457 20.6121 23.8748 21.492 24.0699L21.4919 24.07L21.5026 24.0722C22.5618 24.295 23.5318 24.142 24.3689 23.61C25.174 23.0983 25.765 22.294 26.2198 21.3774C27.0949 19.6134 27.6227 17.1 28.0563 14.339C29.0903 12.8767 30.0752 11.6934 30.9301 10.8336C29.72 13.7002 28.3332 17.4793 28.0243 20.8427L28.0242 20.8427L28.0235 20.8518C27.9007 22.3367 27.9485 23.9271 28.4096 25.2232C28.8894 26.5717 29.8703 27.7007 31.5635 27.8852C33.6749 28.1236 35.3064 27.4137 36.5026 26.2354C37.219 25.5297 37.7657 24.6712 38.1839 23.7828C39.5473 24.9557 41.3637 25.3504 42.7622 25.3504C45.9708 25.3504 48.2228 23.5387 49.6618 21.6676C51.0691 19.8377 51.7979 17.8332 51.9871 17.0065C52.4363 16.4317 52.8854 15.6673 53.3415 14.6676C53.5774 14.1747 54.1114 12.926 54.5455 11.9004C54.745 11.9552 54.9437 11.9979 55.1398 12.0307C54.3758 13.853 53.4328 16.3626 53.0524 18.6698C52.8126 20.1241 52.7688 21.6465 53.258 22.8962C53.51 23.5398 53.9076 24.1212 54.4932 24.5652C55.0773 25.008 55.7946 25.2736 56.6245 25.371L56.6245 25.371L56.6354 25.3722C59.3678 25.6624 61.3984 24.397 62.7977 22.6759C64.1051 21.0678 64.9057 19.0221 65.3398 17.3013C65.8739 16.6989 66.4025 15.8383 66.9353 14.6671C67.1713 14.1738 67.7051 12.9257 68.1391 11.9004C68.3386 11.9552 68.5373 11.9979 68.7333 12.0307C67.9693 13.853 67.0264 16.3626 66.646 18.6698C66.4062 20.1241 66.3624 21.6465 66.8516 22.8962C67.1035 23.5398 67.5012 24.1212 68.0867 24.5652C68.6708 25.008 69.3882 25.2736 70.2181 25.371L70.2181 25.371L70.2296 25.3723C72.9837 25.6631 74.9918 24.3857 76.3872 22.6724C76.4987 22.8173 76.6235 22.9549 76.7629 23.0836C77.2305 23.5151 77.8072 23.7949 78.474 23.9333C78.3044 24.0352 78.1386 24.1419 77.9771 24.2536C76.3518 25.3781 75.1582 27.0238 75.002 29.3912C74.8013 32.2155 77.2632 33.9631 79.7436 33.9631C81.6117 33.9631 83.3985 33.3124 84.9671 31.7006C86.405 30.2231 87.6226 27.9774 88.6133 24.7903C90.4246 24.6181 94.0614 24.1345 97.4557 22.8044C101.316 21.2917 105.274 18.5013 105.274 13.456C105.274 12.3625 105.133 10.6955 104.255 9.27636C103.324 7.77344 101.666 6.7034 98.9972 6.7034C98.0439 6.7034 97.1555 6.90354 96.4686 7.31005C95.779 7.71814 95.1974 8.40847 95.1974 9.33917C95.1974 9.89896 95.5813 10.1979 95.7503 10.3023C95.8798 10.3823 96.0364 10.4434 96.0961 10.4667C96.1026 10.4692 96.108 10.4713 96.112 10.473C96.2636 10.5335 96.3575 10.5774 96.4511 10.6597C96.6035 10.7936 97.0253 11.2793 97.0253 13.0197C97.0253 16.017 95.5171 17.8703 93.6488 19.0689C92.3898 19.8767 90.9832 20.3716 89.8102 20.6713C90.4822 18.4802 91.5907 15.2535 92.939 12.4936L92.9396 12.4925C93.2275 11.9014 93.0993 11.3141 92.8138 10.8838C92.5578 10.498 92.1745 10.2205 91.8197 10.0265C91.0995 9.6327 90.1375 9.38896 89.2684 9.38896C88.8407 9.38896 88.3735 9.45195 87.948 9.63337C87.5155 9.81783 87.0739 10.1512 86.8435 10.702C86.2245 12.1624 85.6662 13.6177 85.1636 15.0136C84.5419 16.2261 83.728 17.0786 82.7413 17.1513C82.7122 16.7997 82.8128 16.2047 83.0524 15.4333C83.5379 14.049 84.1697 12.6 84.5761 11.7092L84.5773 11.7066C84.8451 11.115 84.7049 10.5393 84.4254 10.1214C84.1713 9.74141 83.795 9.4649 83.4433 9.26981C82.7317 8.87506 81.7831 8.62842 80.9244 8.62842C80.1141 8.62842 78.9854 8.8568 78.4885 9.89862C78.4844 9.90717 78.4805 9.91577 78.4766 9.92444C78.457 9.96894 78.4204 10.047 78.3699 10.1548C78.0187 10.9044 76.994 13.0918 76.2843 15.4344C75.9583 16.126 75.5119 16.9084 74.9744 17.5101C74.4822 18.0612 74.0106 18.3559 73.569 18.4231C73.5689 18.422 73.5689 18.421 73.5688 18.4199C73.5394 18.0253 73.6446 17.3704 73.8865 16.5173C74.3582 14.8542 75.2141 12.885 75.7317 11.7272L75.7412 11.7053C75.9853 11.1223 75.8457 10.5614 75.574 10.15C75.3244 9.77213 74.9561 9.49482 74.6075 9.29774C73.9039 8.90001 72.967 8.65336 72.1071 8.65336C71.6216 8.65336 71.1715 8.74349 70.77 8.91373C70.1258 8.98331 69.6713 8.9178 69.358 8.8174C69.3803 8.63386 69.3909 8.44575 69.3909 8.25198C69.3909 7.55443 69.226 6.81817 68.7861 6.22971C68.3187 5.60445 67.6049 5.23719 66.7392 5.23719C65.0949 5.23719 63.6746 6.56204 63.6746 8.25198C63.6746 9.17399 64.0923 10.0161 64.7633 10.5712C64.0194 12.2367 63.2976 13.2985 61.9336 13.7078C61.6662 13.7298 61.4049 13.8328 61.1875 14.026C61.1732 14.0387 61.1593 14.0515 61.1459 14.0646C61.5001 13.1694 61.8659 12.3361 62.1381 11.7272L62.1476 11.7053C62.3917 11.1223 62.2521 10.5614 61.9804 10.15C61.7309 9.77213 61.3625 9.49482 61.0139 9.29774C60.3103 8.90001 59.3734 8.65336 58.5135 8.65336C58.028 8.65336 57.578 8.74349 57.1764 8.91373C56.5322 8.98331 56.0778 8.9178 55.7644 8.8174C55.7867 8.63386 55.7973 8.44575 55.7973 8.25198C55.7973 7.55443 55.6325 6.81817 55.1925 6.22971C54.7251 5.60445 54.0113 5.23719 53.1456 5.23719C51.5014 5.23719 50.081 6.56203 50.081 8.25198C50.081 9.174 50.4987 10.0161 51.1698 10.5712C50.6247 11.7915 50.0915 12.6877 49.3089 13.2406C49.3076 11.6411 48.7803 10.4285 47.8321 9.63847C46.9157 8.87487 45.7486 8.62593 44.6833 8.62593C42.2569 8.62593 40.4541 10.1039 39.2754 11.5339C38.0863 12.9766 37.3919 14.5337 37.1801 15.0664L37.18 15.0664L37.1757 15.0776C36.4475 16.9748 36.1971 18.5801 36.3159 19.9471C36.0708 20.4248 35.7891 20.8634 35.4663 21.19C35.197 21.4625 34.9276 21.6306 34.6422 21.7C34.6414 21.6836 34.6407 21.6662 34.6402 21.6479C34.6255 21.0972 34.7708 20.1832 35.095 18.8578L35.0951 18.8576C35.7366 16.2325 36.7529 12.8744 37.8443 10.3134C38.3151 9.23267 38.3357 8.21946 37.9516 7.36711C37.5771 6.53578 36.8795 5.99599 36.1738 5.71643C36.1486 5.70643 36.123 5.69748 36.0971 5.68958L36.0876 5.68504C36.0553 5.66975 36.0222 5.6562 35.9885 5.64445C35.3636 5.42676 34.6628 5.32773 33.9582 5.32696C32.2 5.30002 30.2008 5.99952 28.1751 7.81611C27.5436 5.73962 26.1433 4.3026 24.55 3.36544C22.5187 2.17063 20.151 1.76367 18.5284 1.76367C16.5618 1.76367 14.2788 1.93505 12.1258 2.46811C9.98445 2.99829 7.88081 3.90864 6.37224 5.45361L6.01073 13.0865ZM81.8707 26.2761C81.8833 26.2685 81.8961 26.261 81.909 26.2536C81.9006 26.2791 81.8922 26.3042 81.8836 26.3288C81.7239 26.7871 81.5979 26.8696 81.5985 26.8704C81.4834 26.9201 81.3861 26.9552 81.3096 26.9774C81.2976 26.9808 81.2867 26.9838 81.2769 26.9864C81.2947 26.7667 81.4316 26.5384 81.8707 26.2761ZM47.71 17.2449C47.7703 17.3365 47.8375 17.4291 47.9121 17.5199C46.9911 18.8214 45.9999 19.4879 44.8595 19.4879C43.7766 19.4879 43.2651 19.1025 43.0321 18.7397C42.9164 18.5595 42.8399 18.3395 42.8121 18.0937C43.1793 18.1666 43.6181 18.2188 44.1218 18.2188C45.4417 18.2188 46.6728 17.8636 47.6182 17.0975C47.6476 17.1473 47.6781 17.1965 47.71 17.2449ZM61.2765 17.2085C61.3258 17.2859 61.3799 17.3639 61.439 17.4411C60.9481 18.011 60.4507 18.3491 59.9754 18.4228C59.9753 18.4218 59.9753 18.4209 59.9752 18.4199C59.9458 18.0253 60.051 17.3704 60.2929 16.5173C60.4066 16.1164 60.5427 15.6977 60.6909 15.2769C60.6891 15.5318 60.7252 15.7834 60.7766 16.0066C60.8682 16.4053 61.0349 16.8293 61.2765 17.2085ZM44.8434 13.6367C45.205 13.2629 45.4959 13.0852 45.7019 13.0117C45.7145 13.1454 45.7046 13.3349 45.64 13.5563C45.4631 14.1628 44.9848 14.7052 44.0941 14.7052C44.0698 14.7052 44.0452 14.7049 44.0203 14.7042C44.2893 14.2822 44.568 13.9214 44.8434 13.6367Z" stroke="#E8949B" stroke-width="2" stroke-linejoin="round"/>
<path d="M34.5104 32.7143L34.5044 32.7275C33.4305 35.0986 32.591 37.2434 31.8756 39.1252C31.7279 39.5138 31.586 39.8896 31.4488 40.253C30.9169 41.662 30.4559 42.8833 29.9983 43.9358C28.8234 46.6383 27.8641 47.7383 26.4298 47.9466C26.2653 47.9693 26.1645 47.9585 26.1119 47.9465C26.0858 47.9406 26.0705 47.9343 26.0629 47.9306C26.0555 47.927 26.0525 47.9246 26.0517 47.9239C26.0507 47.9231 26.0487 47.9213 26.0456 47.9171C26.0422 47.9125 26.0363 47.9036 26.0294 47.8883C26.0151 47.8565 25.9976 47.8 25.9906 47.7132C25.976 47.5337 26.0121 47.2888 26.1183 47.0333C26.2227 46.7818 26.3733 46.5724 26.5332 46.4359C26.6661 46.3262 26.8174 46.1593 26.9078 45.9217C27.0075 45.6595 27.0047 45.3838 26.9207 45.138C26.7741 44.7088 26.4283 44.4837 26.2476 44.385C25.8297 44.1569 25.2711 44.0542 24.7147 44.0542C23.8604 44.0542 22.7983 44.291 21.8193 44.9751C20.8261 45.669 19.977 46.7828 19.5079 48.431L19.5078 48.431L19.5044 48.4435C18.9173 50.6127 19.597 52.5183 20.939 53.8436C22.252 55.1403 24.1723 55.8664 26.1297 55.8664C28.0573 55.8664 30.0754 55.1594 31.6142 53.4685C33.7823 51.1013 34.5803 48.9294 35.5264 46.148C35.5784 45.9953 35.6309 45.8404 35.6842 45.6832C36.5924 43.0035 37.7309 39.6444 40.3377 34.7521C40.662 34.1499 40.5203 33.5453 40.247 33.12C39.9979 32.7324 39.6206 32.4421 39.2675 32.2344C38.5543 31.8149 37.5844 31.5266 36.7145 31.5266H36.712C36.0041 31.5266 34.9716 31.734 34.5104 32.7143ZM25.2654 44.8891L25.2553 44.8975C25.2588 44.8945 25.2622 44.8917 25.2654 44.8891Z" stroke="#E8949B" stroke-width="2" stroke-linejoin="round"/>
<path d="M88.7475 36.8516C89.9895 35.8864 91.4928 35.1942 93.2403 35.2934L93.2423 35.2935C95.2423 35.4111 96.6347 36.2486 97.2612 37.6833C97.8421 39.0139 97.6424 40.6024 97.1346 42.0209C97.1045 42.1103 97.0707 42.2068 97.0351 42.3086C96.8638 42.7984 96.6493 43.412 96.5875 43.9594C96.5658 44.1512 96.5719 44.2732 96.5812 44.3432C96.5878 44.3433 96.595 44.3434 96.6028 44.3434C97.1035 44.3434 97.6427 44.0426 98.208 43.395C98.7497 42.7745 99.1947 41.9691 99.5168 41.2685C100.652 37.9398 103.414 34.5038 107.545 34.5038C108.026 34.5038 108.877 34.5518 109.736 34.8257C110.144 34.9556 110.585 35.1472 110.993 35.4306C111.554 34.7329 112.476 34.5637 113.147 34.5637C114.005 34.5637 114.954 34.8094 115.666 35.2039C116.018 35.3989 116.394 35.6754 116.648 36.0558C116.928 36.4738 117.067 37.048 116.802 37.6382C116.283 38.7992 115.42 40.7669 114.945 42.4295C114.701 43.2828 114.596 43.9357 114.626 44.3278C114.626 44.3305 114.627 44.3332 114.627 44.3358C115.092 44.2724 115.577 43.9667 116.077 43.3969C116.529 42.8822 116.912 42.2402 117.213 41.6361C116.973 41.0215 116.883 40.3264 116.994 39.5434L116.994 39.5431C117.122 38.6378 117.636 37.0489 119.029 35.677C120.436 34.2926 122.654 33.2118 126.029 33.1925C126.063 33.189 126.097 33.1872 126.132 33.1872C128.029 33.1872 129.435 33.697 130.238 34.7524C131.033 35.7969 131.022 37.0932 130.749 38.171C130.472 39.2638 129.886 40.3208 129.242 41.1049C128.92 41.4985 128.558 41.8535 128.18 42.1147C127.864 42.3323 127.432 42.5581 126.944 42.5759C127.213 42.8045 127.466 43.0581 127.69 43.3415C128.481 44.3462 128.833 45.643 128.434 47.2983C127.625 50.7294 124.638 52.475 121.534 52.475C121.229 52.475 120.949 52.4648 120.684 52.4441C118.285 55.3727 113.818 57.6442 107.205 57.6442C106.405 57.6442 105.534 57.6343 104.612 57.6239C100.798 57.5809 96.1216 57.5281 92.0845 58.1223C89.5778 58.4912 87.4391 59.0956 85.9513 60.0287C84.5126 60.931 83.7322 62.0978 83.7322 63.7109C83.7322 63.9334 83.6713 64.3088 83.3397 64.597C83.0401 64.8573 82.6979 64.8855 82.5258 64.8855C82.2328 64.8855 81.96 64.7937 81.7581 64.7066C81.5375 64.6115 81.3098 64.4815 81.0856 64.3281C80.6362 64.0207 80.1487 63.5841 79.6973 63.0347C78.7931 61.9341 77.9883 60.3221 77.9883 58.3074C77.9883 55.3889 79.5904 53.6211 81.4421 52.6386C83.2386 51.6854 85.3038 51.4376 86.5366 51.4376C89.5864 51.4376 93.1608 52.0317 96.546 52.6049L96.787 52.6457C100.136 53.213 103.272 53.7441 105.732 53.7441C111.533 53.7441 114.814 51.8417 116.677 49.7353C116.654 49.6543 116.634 49.5731 116.617 49.4917C115.286 50.7177 113.531 51.5079 111.312 51.2726L111.31 51.2723C109.806 51.1095 108.739 50.3916 108.137 49.2646C107.97 48.9529 107.845 48.6203 107.754 48.2741C106.549 49.3716 105.033 50.1386 103.162 50.1386C101.988 50.1386 101.008 49.7272 100.285 48.9849C100.093 48.7877 99.9239 48.5724 99.776 48.343C98.3746 50.1681 96.3138 51.5649 93.4357 51.2421C92.2748 51.114 91.3257 50.7139 90.6445 49.9999C89.9678 49.2907 89.6619 48.3829 89.5662 47.4433C89.3807 45.6226 89.957 43.3526 90.6446 41.1629C90.7274 40.8909 90.7822 40.6448 90.8086 40.4347C90.8291 40.2717 90.83 40.1498 90.8225 40.0647C90.1248 40.0875 89.5392 40.5172 89.0325 41.2448C88.5029 42.0052 88.1874 42.9243 88.0562 43.4318L88.0546 43.4381C87.8186 44.3267 87.6296 45.1261 87.554 45.7982C87.4743 46.5053 87.5454 46.8809 87.6381 47.0484C87.6498 47.0695 87.6607 47.0909 87.6708 47.1127C87.7372 47.2564 87.753 47.3811 87.758 47.4258C87.7646 47.4852 87.7648 47.5342 87.7642 47.5647C87.7628 47.6264 87.7564 47.6778 87.7516 47.7103C87.7414 47.7789 87.726 47.8434 87.7104 47.899C87.6781 48.0136 87.6295 48.1432 87.5622 48.2798C87.4268 48.5547 87.2022 48.8843 86.8466 49.181C86.1036 49.801 84.9543 50.1475 83.2925 49.8626C82.5225 49.7329 81.8853 49.3853 81.4568 48.7979C81.0467 48.2358 80.9115 47.5677 80.8946 46.9446C80.8619 45.7308 81.2757 44.2859 81.6752 43.0357C81.7827 42.6995 81.8893 42.3764 81.9912 42.0676C82.2962 41.1432 82.559 40.3467 82.6759 39.7083C82.7049 39.5503 82.7209 39.4203 82.727 39.3156C81.9886 39.3905 81.2876 39.8873 80.6451 40.6556C79.977 41.4544 79.5148 42.3818 79.2956 42.8658C78.6237 45.0293 78.4086 46.5557 78.3585 47.5153C78.3333 47.9998 78.3502 48.3377 78.3708 48.5387C78.3759 48.5887 78.3811 48.6289 78.3856 48.6597C78.4175 48.7252 78.4533 48.8084 78.4852 48.9056C78.559 49.13 78.6422 49.5233 78.4981 49.9619C78.3404 50.442 77.9731 50.791 77.4952 50.9988C77.0471 51.1937 76.4798 51.2781 75.7932 51.2781C74.5912 51.2781 73.5947 50.8386 72.9189 49.9682C72.7324 49.728 72.5782 49.465 72.4523 49.1844C71.0947 50.5772 69.2512 51.5282 66.8402 51.2726L66.838 51.2723C65.3346 51.1095 64.2673 50.3916 63.6649 49.2646C63.4983 48.9529 63.3729 48.6203 63.2817 48.2741C62.0767 49.3716 60.5607 50.1386 58.6898 50.1386C57.7368 50.1386 56.9359 49.8695 56.2966 49.4056C55.8854 50.3422 55.339 51.2569 54.6109 52.0116C53.4077 53.2588 51.7395 54.0305 49.5509 53.7831C47.8575 53.5987 46.8766 52.4696 46.3968 51.1211C45.9357 49.825 45.8879 48.2346 46.0106 46.7496L46.0114 46.7406L46.0114 46.7406C46.3203 43.3772 47.7072 39.5981 48.9173 36.7314C48.0623 37.5912 47.0774 38.7745 46.0434 40.2368C45.6099 42.9979 45.082 45.5113 44.2069 47.2752C43.7521 48.1919 43.1611 48.9961 42.356 49.5078C41.5189 50.0399 40.549 50.1929 39.4897 49.97L39.4791 49.9678L39.4791 49.9678C38.5992 49.7727 38.0356 49.0435 37.7271 48.3056C37.4062 47.5381 37.2699 46.5733 37.3384 45.521C37.4762 43.4015 38.4507 40.7867 40.7321 38.325L40.7339 38.3231C40.8787 38.1677 41.0969 37.721 41.1821 36.9892C41.263 36.2946 41.2054 35.4818 40.9541 34.7184C40.7045 33.9602 40.2743 33.2792 39.6279 32.7869C38.9883 32.2998 38.0698 31.9456 36.7472 31.9456C33.473 31.9456 31.7187 33.132 30.7668 34.3889C29.778 35.6945 29.5638 37.1972 29.6068 37.9058C29.6389 38.299 29.4552 38.5879 29.3282 38.7354C29.1968 38.8879 29.0464 38.988 28.939 39.0499C28.7181 39.1776 28.4568 39.2695 28.2116 39.3367C27.707 39.4751 27.0574 39.5659 26.3991 39.5659C25.6938 39.5659 24.8296 39.4768 24.0986 39.0513C22.9456 38.3824 22.2058 37.1967 22.2109 35.7525C22.2159 34.3381 22.9295 32.8176 24.3567 31.3566L88.7475 36.8516ZM88.7475 36.8516C88.6485 36.5673 88.5154 36.2931 88.3397 36.0366C87.7039 35.1089 86.659 34.6207 85.2888 34.5335C83.672 34.4212 82.2299 35.0332 81.0234 35.9019M88.7475 36.8516L81.0234 35.9019M81.0234 35.9019C80.789 35.6166 80.4893 35.399 80.2046 35.2369C79.5027 34.8374 78.5646 34.5911 77.7042 34.5911C76.8926 34.5911 75.7652 34.8178 75.2304 35.8216L75.2216 35.8386C74.3186 37.6145 73.573 39.3811 73.0252 41.0434C72.716 41.7457 72.2663 42.6105 71.6996 43.2899C71.1723 43.922 70.6564 44.2632 70.1625 44.3308C70.1623 44.3282 70.1621 44.3255 70.1619 44.3228C70.1317 43.9307 70.2368 43.2778 70.4807 42.4246C70.9558 40.7618 71.8185 38.794 72.3375 37.633C72.6026 37.0429 72.4633 36.4687 72.184 36.0508C71.9298 35.6704 71.5532 35.3939 71.2014 35.1989C70.4895 34.8044 69.541 34.5587 68.6829 34.5587C68.0114 34.5587 67.0901 34.7279 66.529 35.4256C66.1205 35.1422 65.6793 34.9506 65.2721 34.8207C64.4132 34.5468 63.562 34.4988 63.0808 34.4988C60.0907 34.4988 57.8007 36.3222 56.3616 38.5493C54.9876 40.6756 54.2811 43.3209 54.447 45.5422C54.1959 46.0781 53.8987 46.5981 53.5435 46.9924C53.244 47.325 52.9446 47.5251 52.6268 47.6027C52.626 47.5863 52.6253 47.569 52.6248 47.5507C52.6102 47 52.7554 46.086 53.0796 44.7606L53.0797 44.7604C53.7212 42.1354 54.7375 38.7776 55.8288 36.2166C56.2997 35.1357 56.3203 34.1224 55.9362 33.2699C55.5617 32.4386 54.8642 31.8988 54.1585 31.6193C54.1332 31.6093 54.1076 31.6003 54.0817 31.5924L54.0722 31.5879C54.0399 31.5726 54.0068 31.559 53.9731 31.5473C53.3482 31.3296 52.6474 31.2306 51.9428 31.2298C50.1846 31.2028 48.1854 31.9023 46.1598 33.7189C45.5282 31.6425 44.1279 30.2054 42.5346 29.2683C40.5034 28.0735 38.1357 27.6665 36.513 27.6665C34.5464 27.6665 32.2634 27.8379 30.1104 28.3709C27.9691 28.9011 25.8654 29.8115 24.3569 31.3564L81.0234 35.9019ZM78.2807 48.4736C78.2745 48.4769 78.2075 48.5202 77.4449 49.0214L78.28 48.4726C78.2803 48.4729 78.2805 48.4732 78.2807 48.4736ZM77.4449 48.0214C77.595 48.0214 77.7224 48.0541 77.8248 48.0964C77.7059 48.0475 77.5772 48.0214 77.4449 48.0214ZM122.98 39.9211C122.977 39.8741 122.986 39.7093 123.198 39.3774C123.374 39.1112 123.779 38.796 124.348 38.5393C124.909 38.2863 125.459 38.167 125.779 38.167C125.815 38.167 125.849 38.1678 125.879 38.1693C125.87 38.1839 125.86 38.1988 125.849 38.2138C125.793 38.2918 125.73 38.3614 125.669 38.4154C125.643 38.4388 125.62 38.4564 125.602 38.4693C125.341 38.4625 125.071 38.5259 124.828 38.6827C124.542 38.8672 124.372 39.1291 124.28 39.3701C124.104 39.8303 124.155 40.3322 124.293 40.7381C124.323 40.825 124.358 40.9115 124.398 40.9971C124.199 40.8901 124.013 40.788 123.836 40.6828C123.485 40.4749 123.256 40.3043 123.116 40.1548C122.99 40.0201 122.982 39.9516 122.98 39.9211ZM122.707 46.607C122.679 46.2831 122.627 45.9645 122.551 45.6538C122.753 45.7795 122.903 45.8935 123.008 46.001C123.157 46.1533 123.148 46.2141 123.139 46.2729L123.136 46.2938C123.125 46.3784 123.101 46.4085 123.084 46.4272C123.057 46.4567 122.994 46.5072 122.86 46.5582C122.812 46.5764 122.761 46.5926 122.707 46.607ZM64.5404 38.6188C64.569 38.7159 64.5899 38.9174 64.5482 39.2479C64.4595 39.9527 64.1509 40.7834 63.9545 41.2412C63.9477 41.2572 63.9412 41.2733 63.9352 41.2896C63.6871 41.88 63.3022 42.7353 62.7898 43.4399C62.2362 44.2012 61.73 44.5204 61.3058 44.5204C61.0854 44.5204 61.0283 44.4624 61.0177 44.4516L61.017 44.4509C60.991 44.4249 60.9196 44.3305 60.8868 44.0777C60.818 43.5471 60.9723 42.7004 61.3797 41.7551C61.7783 40.8301 62.3612 39.9471 62.9933 39.3467C63.6436 38.729 64.1764 38.5594 64.5404 38.6188ZM107.463 39.3467C108.113 38.729 108.646 38.5593 109.01 38.6188C109.038 38.7159 109.059 38.9174 109.018 39.2479C108.929 39.9527 108.62 40.7834 108.424 41.2412C108.417 41.2572 108.411 41.2733 108.405 41.2896C108.156 41.88 107.771 42.7353 107.259 43.4399C106.705 44.2012 106.199 44.5204 105.775 44.5204C105.555 44.5204 105.498 44.4624 105.487 44.4516L105.486 44.4509C105.46 44.4249 105.389 44.3305 105.356 44.0777C105.287 43.5471 105.442 42.7004 105.849 41.7551C106.248 40.8301 106.83 39.9471 107.463 39.3467Z" stroke="#E8949B" stroke-width="2" stroke-linejoin="round"/>
<path d="M144.791 16.1844C143.783 14.9766 142.104 14.511 140.279 15.0994C140.273 15.1012 140.266 15.103 140.26 15.1049C137.036 16.0848 134.385 18.2185 132.871 20.9851C132.865 20.9958 132.859 21.0066 132.854 21.0176C131.838 23.046 131.652 24.9954 131.578 25.7588C131.571 25.8385 131.564 25.9053 131.558 25.9579C131.504 26.4342 131.796 26.8819 132.253 27.0251C132.711 27.1683 133.205 26.9668 133.433 26.5446C133.471 26.4731 133.668 26.1963 134.046 25.8573C134.408 25.5321 134.886 25.1968 135.444 24.9641C135.474 24.9517 135.503 24.9379 135.532 24.9227C136.948 24.1648 138.486 24.027 139.786 24.4315C140.839 24.8502 141.934 24.6008 142.863 23.9284C143.781 23.2635 144.584 22.1651 145.225 20.7373C145.974 19.1103 145.786 17.3764 144.791 16.1844Z" stroke="#E8949B" stroke-width="2" stroke-linejoin="round"/>
<path d="M133.637 29.2652C134.141 29.3808 134.514 29.6624 134.72 29.9885C135.048 30.6133 135.659 30.9107 136.276 30.9668C136.88 31.0217 137.538 30.861 138.187 30.5671C139.042 30.1877 139.629 29.4168 139.659 28.5174C139.691 27.5813 139.112 26.7711 138.179 26.3788C136.775 25.7568 135.211 25.6933 133.832 26.1902C133.82 26.1945 133.807 26.1991 133.796 26.204C132.806 26.604 132.133 27.2302 131.91 27.4373C131.886 27.46 131.867 27.4777 131.854 27.4895C131.49 27.8087 131.408 28.3422 131.657 28.7565C131.902 29.1625 132.396 29.3401 132.842 29.1854C132.847 29.1842 132.858 29.1822 132.872 29.1799C132.914 29.1735 132.975 29.1674 133.05 29.1664C133.203 29.1644 133.379 29.1842 133.545 29.2393C133.575 29.2494 133.606 29.258 133.637 29.2652Z" stroke="#E8949B" stroke-width="2" stroke-linejoin="round"/>
<path d="M12.5867 40.9833C11.653 41.3758 11.0747 42.1871 11.1058 43.1229C11.1358 44.022 11.7227 44.7935 12.5787 45.172C13.2285 45.4662 13.8868 45.6257 14.4909 45.5703C15.1053 45.514 15.7185 45.218 16.046 44.5926C16.251 44.2675 16.6266 43.9853 17.129 43.8696C17.1611 43.8622 17.1928 43.8532 17.2241 43.8426C17.3873 43.7876 17.5622 43.7678 17.7149 43.77C17.7896 43.7711 17.8505 43.7773 17.8917 43.7838C17.9055 43.7859 17.9152 43.7878 17.9211 43.789C18.3659 43.945 18.8615 43.7687 19.107 43.363C19.3579 42.9486 19.2756 42.4139 18.9117 42.094C18.8984 42.0824 18.8794 42.0647 18.8548 42.0417C18.6329 41.8348 17.958 41.2054 16.9675 40.8076C16.9569 40.8034 16.9462 40.7993 16.9355 40.7954C15.5535 40.2947 13.989 40.3619 12.5867 40.9833Z" stroke="#E8949B" stroke-width="2" stroke-linejoin="round"/>
<path d="M18.5578 36.4809C18.3126 36.0551 17.6906 34.9958 16.7706 33.9127C15.8406 32.8181 14.5233 31.5993 12.8868 31.0544C9.80918 29.9776 6.39385 30.584 3.92204 32.5558C3.18063 33.1292 2.72459 33.8539 2.55327 34.6571C2.3846 35.4479 2.50709 36.2398 2.7872 36.9468C3.33535 38.3302 4.54834 39.5544 5.92888 40.1758C7.17149 40.797 8.2851 41.0401 9.29765 40.6323C10.2531 40.2474 10.8441 39.3743 11.3127 38.5975C12.1056 37.3433 13.6964 36.6726 15.3272 37.0628C15.354 37.0692 15.3809 37.0745 15.4081 37.0787C16.1768 37.2234 16.6968 37.5635 16.9626 37.7771C17.068 37.8618 17.1214 37.915 17.1643 37.9578C17.177 37.9705 17.1888 37.9823 17.2008 37.9937L17.2013 37.9941C17.2057 37.9983 17.234 38.0255 17.2712 38.055C17.2714 38.0552 17.2717 38.0554 17.272 38.0557C17.2816 38.0635 17.3586 38.1259 17.4686 38.1776C17.4694 38.178 17.4705 38.1785 17.4717 38.1791C17.5085 38.1967 17.7263 38.301 18.0165 38.2652C18.1739 38.2328 18.4898 38.0761 18.6333 37.9464C18.7406 37.8055 18.8623 37.5239 18.8868 37.3956C18.9149 37.1683 18.8554 36.9925 18.8432 36.9567L18.8423 36.9539C18.8217 36.8926 18.7994 36.8465 18.7889 36.8255C18.7668 36.7812 18.7461 36.7482 18.7395 36.7377C18.7237 36.7126 18.7097 36.6929 18.7059 36.6876L18.7057 36.6873C18.6941 36.6711 18.6693 36.6378 18.6654 36.6324C18.6443 36.6039 18.6086 36.555 18.5578 36.4809Z" stroke="#E8949B" stroke-width="2" stroke-linejoin="round"/>
<mask id="path-9-outside-1_602_81" maskUnits="userSpaceOnUse" x="102.897" y="0.681641" width="32" height="32" fill="black">
<rect fill="white" x="102.897" y="0.681641" width="32" height="32"/>
<path fill-rule="evenodd" clip-rule="evenodd" d="M130.712 4.41177C130.568 4.26964 130.417 4.13748 130.263 4.01031C128.725 2.75605 126.716 2.36705 124.752 2.94057C122.697 3.54401 121.106 5.09251 120.492 7.08735C120.245 7.88778 119.973 8.60593 119.684 9.24926C115.925 6.2545 111.506 3.82578 109.753 5.53885C109.371 5.91289 109.182 6.43155 109.182 7.08236C109.182 8.07231 109.623 9.36895 110.496 10.9274C110.647 11.1967 110.813 11.4735 110.985 11.7503C109.764 12.2241 108.668 12.9098 107.734 13.8224C105.843 15.6702 104.897 18.0989 104.897 20.5276C104.897 22.9563 105.843 25.3826 107.734 27.2303C111.518 30.9257 117.674 30.9257 121.459 27.2303C122.393 26.3176 123.095 25.2479 123.579 24.056C123.863 24.2255 124.145 24.3851 124.42 24.5347C127.063 25.9511 128.969 26.2029 129.934 25.2604C131.754 23.4825 128.944 18.842 125.804 15.169C126.454 14.8947 127.172 14.6353 127.97 14.4009C130.012 13.8025 131.598 12.2465 132.215 10.2392C132.804 8.32166 132.406 6.35674 131.122 4.85313C130.994 4.70102 130.855 4.55639 130.712 4.41426V4.41177ZM119.842 25.6519C116.949 28.4771 112.241 28.4771 109.348 25.6519C107.903 24.238 107.178 22.3828 107.178 20.5251C107.178 18.6674 107.9 16.8122 109.348 15.3984C110.176 14.5905 111.179 13.9945 112.279 13.6429L113.012 14.5905C113.062 14.6528 113.112 14.7151 113.163 14.7775C113.387 15.0543 113.616 15.3335 113.855 15.6128C113.875 15.6377 113.898 15.6627 113.92 15.6876C113.938 15.7076 113.953 15.725 113.971 15.745C114.19 15.9993 114.411 16.2512 114.641 16.503C114.651 16.5155 114.661 16.5255 114.671 16.5379C114.681 16.5504 114.691 16.5604 114.701 16.5728C114.701 16.5728 114.706 16.5778 114.709 16.5803C114.709 16.5828 114.714 16.5853 114.716 16.5878C114.751 16.6277 114.789 16.6651 114.824 16.705C114.85 16.7299 114.872 16.7574 114.897 16.7823C115.094 16.9942 115.293 17.2062 115.494 17.4181C115.507 17.4306 115.517 17.4406 115.527 17.4531C115.549 17.4755 115.57 17.4979 115.592 17.5229C115.61 17.5428 115.628 17.5603 115.645 17.5802C115.665 17.6002 115.685 17.6201 115.703 17.6401C115.718 17.655 115.733 17.67 115.748 17.685C116.033 17.9767 116.32 18.2684 116.617 18.5577C116.912 18.847 117.211 19.1262 117.508 19.4055C117.526 19.423 117.544 19.4379 117.561 19.4554C117.579 19.4728 117.596 19.4903 117.614 19.5053C117.637 19.5277 117.662 19.5476 117.685 19.5676C117.705 19.585 117.722 19.6025 117.742 19.62C117.747 19.6249 117.755 19.6299 117.76 19.6349C117.765 19.6399 117.773 19.6449 117.778 19.6524C117.994 19.8494 118.213 20.0439 118.43 20.2359C118.46 20.2633 118.49 20.2907 118.52 20.3181C118.556 20.3506 118.591 20.383 118.626 20.4129C118.629 20.4129 118.631 20.4179 118.634 20.4204C118.636 20.4204 118.639 20.4254 118.641 20.4279C118.654 20.4378 118.664 20.4478 118.677 20.4578C118.689 20.4678 118.699 20.4777 118.712 20.4877C118.971 20.7096 119.23 20.9291 119.487 21.1435C119.51 21.161 119.533 21.1809 119.555 21.1984C119.578 21.2183 119.601 21.2358 119.623 21.2532C119.908 21.4851 120.192 21.7096 120.477 21.929C120.492 21.9415 120.51 21.9539 120.525 21.9664C120.572 22.0038 120.62 22.0412 120.668 22.0786L121.637 22.7918C121.277 23.8665 120.668 24.8464 119.84 25.6544L119.842 25.6519ZM129.382 23.6969C129.382 24.0435 129.297 24.3053 129.128 24.4699C128.707 24.8789 127.396 24.8539 124.971 23.5548C124.47 23.2855 123.949 22.9738 123.42 22.6322C123.269 22.5349 123.118 22.4377 122.967 22.3354C122.841 22.2507 122.715 22.1634 122.589 22.0761L122.574 22.0661C122.423 21.9614 122.269 21.8567 122.118 21.747C121.987 21.6522 121.859 21.5549 121.728 21.4577C121.7 21.4378 121.673 21.4153 121.645 21.3954C121.632 21.3854 121.622 21.3779 121.61 21.3679C121.597 21.358 121.587 21.3505 121.575 21.3405C121.293 21.1286 121.013 20.9116 120.734 20.6897C120.701 20.6623 120.666 20.6348 120.633 20.6099C120.598 20.5825 120.562 20.555 120.527 20.5251C120.26 20.3107 119.993 20.0862 119.726 19.8593C119.696 19.8319 119.664 19.807 119.633 19.782C119.601 19.7546 119.568 19.7272 119.535 19.6997C119.49 19.6599 119.444 19.6224 119.399 19.5826L119.387 19.5726C119.157 19.3731 118.928 19.1686 118.699 18.9617L118.694 18.9567C118.659 18.9267 118.626 18.8968 118.593 18.8669C118.576 18.8494 118.556 18.832 118.538 18.817C118.483 18.7672 118.427 18.7173 118.372 18.6649C118.055 18.3732 117.74 18.0764 117.428 17.7697C117.116 17.463 116.811 17.1563 116.511 16.8471C116.458 16.7923 116.408 16.7374 116.355 16.685C116.338 16.6676 116.32 16.6476 116.302 16.6302C116.29 16.6152 116.275 16.6003 116.262 16.5878C116.242 16.5678 116.224 16.5479 116.204 16.5255C115.993 16.301 115.781 16.0766 115.577 15.8522L115.567 15.8397C115.527 15.7948 115.487 15.7525 115.446 15.7076C115.416 15.6727 115.386 15.6377 115.353 15.6028C115.328 15.5754 115.305 15.548 115.28 15.5206C115.048 15.2612 114.819 14.9994 114.6 14.7376C114.568 14.6977 114.535 14.6578 114.502 14.6179C114.479 14.5905 114.454 14.5605 114.432 14.5331C114.202 14.2588 113.981 13.9845 113.764 13.7102C113.754 13.6978 113.747 13.6878 113.737 13.6753C113.727 13.6629 113.719 13.6529 113.709 13.6404C113.689 13.613 113.666 13.5856 113.646 13.5606C113.545 13.4334 113.447 13.3063 113.351 13.1791C113.248 13.042 113.15 12.9048 113.052 12.7702C113.039 12.7527 113.027 12.7353 113.014 12.7178C112.923 12.5956 112.835 12.4709 112.75 12.3487C112.644 12.2016 112.546 12.052 112.445 11.9049C112.095 11.3862 111.775 10.8776 111.501 10.3888C110.171 8.01745 110.146 6.73825 110.564 6.32682C111.405 5.50644 114.829 6.76818 119.173 10.2766C119.152 10.314 119.13 10.3539 119.11 10.3913C119.072 10.4586 119.037 10.526 118.999 10.5883C118.996 10.5933 118.994 10.5983 118.991 10.6033C118.989 10.6083 118.986 10.6132 118.984 10.6182C118.848 10.8377 118.709 11.0421 118.568 11.2267C118.566 11.2316 118.561 11.2341 118.558 11.2391C118.558 11.2416 118.553 11.2441 118.551 11.2466C118.41 11.4311 118.269 11.5982 118.123 11.7503C118.115 11.7578 118.11 11.7628 118.103 11.7702C117.959 11.9174 117.813 12.0495 117.667 12.1617C117.662 12.1642 117.659 12.1667 117.654 12.1692C117.649 12.1717 117.644 12.1767 117.639 12.1792C117.491 12.2889 117.342 12.3862 117.191 12.461L116.423 12.84L117.08 13.3836C118.014 14.1566 118.926 14.977 119.787 15.8198C120.394 16.4132 120.995 17.0366 121.58 17.675L122.121 18.2684L122.506 17.5678C122.587 17.4231 122.685 17.281 122.801 17.1389C122.803 17.1339 122.808 17.1289 122.811 17.1264C122.813 17.1214 122.818 17.1164 122.821 17.1139C122.939 16.9718 123.075 16.8322 123.226 16.695C123.231 16.69 123.239 16.685 123.244 16.6776C123.4 16.5379 123.571 16.4008 123.763 16.2636L123.78 16.2512C123.971 16.1165 124.18 15.9819 124.405 15.8522C124.41 15.8497 124.412 15.8472 124.417 15.8447C124.422 15.8447 124.427 15.8397 124.43 15.8372C124.493 15.8023 124.561 15.7649 124.629 15.73C124.669 15.7101 124.707 15.6901 124.744 15.6702C127.859 19.2559 129.375 22.2307 129.375 23.6969H129.382ZM131.122 9.91504C130.616 11.5633 129.314 12.8375 127.642 13.3287C126.819 13.5706 125.908 13.8898 125.031 14.2813L125.021 14.2713L124.626 14.4633C124.626 14.4633 124.603 14.4758 124.591 14.4807C124.581 14.4857 124.573 14.4907 124.563 14.4957C124.447 14.5531 124.337 14.6129 124.223 14.6752C124.191 14.6927 124.158 14.7101 124.125 14.7276C123.518 15.0568 122.997 15.4058 122.569 15.7724C122.551 15.7874 122.534 15.7998 122.516 15.8148C122.494 15.8322 122.473 15.8472 122.453 15.8647C122.259 16.0392 122.083 16.2187 121.93 16.4033C121.486 15.932 121.036 15.4732 120.583 15.0293C120.16 14.6154 119.721 14.2114 119.278 13.81C118.984 13.5432 118.687 13.2764 118.384 13.017C118.576 12.8699 118.762 12.6978 118.943 12.5083C118.959 12.4934 118.974 12.4734 118.989 12.456C119.001 12.441 119.011 12.4285 119.024 12.4136C119.422 11.9847 119.797 11.4511 120.149 10.8252C120.172 10.7853 120.195 10.7479 120.217 10.708C120.265 10.6232 120.316 10.5384 120.361 10.4512C120.366 10.4412 120.374 10.4312 120.379 10.4212C120.386 10.4113 120.391 10.3988 120.399 10.3863L120.6 9.99484L120.588 9.98486C120.998 9.12209 121.328 8.22192 121.58 7.40403C122.083 5.77076 123.39 4.49904 125.074 4.00532C126.666 3.53903 128.287 3.85072 129.528 4.86061C129.657 4.96534 129.78 5.07755 129.901 5.19474C130.022 5.31444 130.135 5.43413 130.243 5.5613C131.278 6.77316 131.595 8.35657 131.12 9.91006L131.122 9.91504Z"/>
</mask>
<path fill-rule="evenodd" clip-rule="evenodd" d="M130.712 4.41177C130.568 4.26964 130.417 4.13748 130.263 4.01031C128.725 2.75605 126.716 2.36705 124.752 2.94057C122.697 3.54401 121.106 5.09251 120.492 7.08735C120.245 7.88778 119.973 8.60593 119.684 9.24926C115.925 6.2545 111.506 3.82578 109.753 5.53885C109.371 5.91289 109.182 6.43155 109.182 7.08236C109.182 8.07231 109.623 9.36895 110.496 10.9274C110.647 11.1967 110.813 11.4735 110.985 11.7503C109.764 12.2241 108.668 12.9098 107.734 13.8224C105.843 15.6702 104.897 18.0989 104.897 20.5276C104.897 22.9563 105.843 25.3826 107.734 27.2303C111.518 30.9257 117.674 30.9257 121.459 27.2303C122.393 26.3176 123.095 25.2479 123.579 24.056C123.863 24.2255 124.145 24.3851 124.42 24.5347C127.063 25.9511 128.969 26.2029 129.934 25.2604C131.754 23.4825 128.944 18.842 125.804 15.169C126.454 14.8947 127.172 14.6353 127.97 14.4009C130.012 13.8025 131.598 12.2465 132.215 10.2392C132.804 8.32166 132.406 6.35674 131.122 4.85313C130.994 4.70102 130.855 4.55639 130.712 4.41426V4.41177ZM119.842 25.6519C116.949 28.4771 112.241 28.4771 109.348 25.6519C107.903 24.238 107.178 22.3828 107.178 20.5251C107.178 18.6674 107.9 16.8122 109.348 15.3984C110.176 14.5905 111.179 13.9945 112.279 13.6429L113.012 14.5905C113.062 14.6528 113.112 14.7151 113.163 14.7775C113.387 15.0543 113.616 15.3335 113.855 15.6128C113.875 15.6377 113.898 15.6627 113.92 15.6876C113.938 15.7076 113.953 15.725 113.971 15.745C114.19 15.9993 114.411 16.2512 114.641 16.503C114.651 16.5155 114.661 16.5255 114.671 16.5379C114.681 16.5504 114.691 16.5604 114.701 16.5728C114.701 16.5728 114.706 16.5778 114.709 16.5803C114.709 16.5828 114.714 16.5853 114.716 16.5878C114.751 16.6277 114.789 16.6651 114.824 16.705C114.85 16.7299 114.872 16.7574 114.897 16.7823C115.094 16.9942 115.293 17.2062 115.494 17.4181C115.507 17.4306 115.517 17.4406 115.527 17.4531C115.549 17.4755 115.57 17.4979 115.592 17.5229C115.61 17.5428 115.628 17.5603 115.645 17.5802C115.665 17.6002 115.685 17.6201 115.703 17.6401C115.718 17.655 115.733 17.67 115.748 17.685C116.033 17.9767 116.32 18.2684 116.617 18.5577C116.912 18.847 117.211 19.1262 117.508 19.4055C117.526 19.423 117.544 19.4379 117.561 19.4554C117.579 19.4728 117.596 19.4903 117.614 19.5053C117.637 19.5277 117.662 19.5476 117.685 19.5676C117.705 19.585 117.722 19.6025 117.742 19.62C117.747 19.6249 117.755 19.6299 117.76 19.6349C117.765 19.6399 117.773 19.6449 117.778 19.6524C117.994 19.8494 118.213 20.0439 118.43 20.2359C118.46 20.2633 118.49 20.2907 118.52 20.3181C118.556 20.3506 118.591 20.383 118.626 20.4129C118.629 20.4129 118.631 20.4179 118.634 20.4204C118.636 20.4204 118.639 20.4254 118.641 20.4279C118.654 20.4378 118.664 20.4478 118.677 20.4578C118.689 20.4678 118.699 20.4777 118.712 20.4877C118.971 20.7096 119.23 20.9291 119.487 21.1435C119.51 21.161 119.533 21.1809 119.555 21.1984C119.578 21.2183 119.601 21.2358 119.623 21.2532C119.908 21.4851 120.192 21.7096 120.477 21.929C120.492 21.9415 120.51 21.9539 120.525 21.9664C120.572 22.0038 120.62 22.0412 120.668 22.0786L121.637 22.7918C121.277 23.8665 120.668 24.8464 119.84 25.6544L119.842 25.6519ZM129.382 23.6969C129.382 24.0435 129.297 24.3053 129.128 24.4699C128.707 24.8789 127.396 24.8539 124.971 23.5548C124.47 23.2855 123.949 22.9738 123.42 22.6322C123.269 22.5349 123.118 22.4377 122.967 22.3354C122.841 22.2507 122.715 22.1634 122.589 22.0761L122.574 22.0661C122.423 21.9614 122.269 21.8567 122.118 21.747C121.987 21.6522 121.859 21.5549 121.728 21.4577C121.7 21.4378 121.673 21.4153 121.645 21.3954C121.632 21.3854 121.622 21.3779 121.61 21.3679C121.597 21.358 121.587 21.3505 121.575 21.3405C121.293 21.1286 121.013 20.9116 120.734 20.6897C120.701 20.6623 120.666 20.6348 120.633 20.6099C120.598 20.5825 120.562 20.555 120.527 20.5251C120.26 20.3107 119.993 20.0862 119.726 19.8593C119.696 19.8319 119.664 19.807 119.633 19.782C119.601 19.7546 119.568 19.7272 119.535 19.6997C119.49 19.6599 119.444 19.6224 119.399 19.5826L119.387 19.5726C119.157 19.3731 118.928 19.1686 118.699 18.9617L118.694 18.9567C118.659 18.9267 118.626 18.8968 118.593 18.8669C118.576 18.8494 118.556 18.832 118.538 18.817C118.483 18.7672 118.427 18.7173 118.372 18.6649C118.055 18.3732 117.74 18.0764 117.428 17.7697C117.116 17.463 116.811 17.1563 116.511 16.8471C116.458 16.7923 116.408 16.7374 116.355 16.685C116.338 16.6676 116.32 16.6476 116.302 16.6302C116.29 16.6152 116.275 16.6003 116.262 16.5878C116.242 16.5678 116.224 16.5479 116.204 16.5255C115.993 16.301 115.781 16.0766 115.577 15.8522L115.567 15.8397C115.527 15.7948 115.487 15.7525 115.446 15.7076C115.416 15.6727 115.386 15.6377 115.353 15.6028C115.328 15.5754 115.305 15.548 115.28 15.5206C115.048 15.2612 114.819 14.9994 114.6 14.7376C114.568 14.6977 114.535 14.6578 114.502 14.6179C114.479 14.5905 114.454 14.5605 114.432 14.5331C114.202 14.2588 113.981 13.9845 113.764 13.7102C113.754 13.6978 113.747 13.6878 113.737 13.6753C113.727 13.6629 113.719 13.6529 113.709 13.6404C113.689 13.613 113.666 13.5856 113.646 13.5606C113.545 13.4334 113.447 13.3063 113.351 13.1791C113.248 13.042 113.15 12.9048 113.052 12.7702C113.039 12.7527 113.027 12.7353 113.014 12.7178C112.923 12.5956 112.835 12.4709 112.75 12.3487C112.644 12.2016 112.546 12.052 112.445 11.9049C112.095 11.3862 111.775 10.8776 111.501 10.3888C110.171 8.01745 110.146 6.73825 110.564 6.32682C111.405 5.50644 114.829 6.76818 119.173 10.2766C119.152 10.314 119.13 10.3539 119.11 10.3913C119.072 10.4586 119.037 10.526 118.999 10.5883C118.996 10.5933 118.994 10.5983 118.991 10.6033C118.989 10.6083 118.986 10.6132 118.984 10.6182C118.848 10.8377 118.709 11.0421 118.568 11.2267C118.566 11.2316 118.561 11.2341 118.558 11.2391C118.558 11.2416 118.553 11.2441 118.551 11.2466C118.41 11.4311 118.269 11.5982 118.123 11.7503C118.115 11.7578 118.11 11.7628 118.103 11.7702C117.959 11.9174 117.813 12.0495 117.667 12.1617C117.662 12.1642 117.659 12.1667 117.654 12.1692C117.649 12.1717 117.644 12.1767 117.639 12.1792C117.491 12.2889 117.342 12.3862 117.191 12.461L116.423 12.84L117.08 13.3836C118.014 14.1566 118.926 14.977 119.787 15.8198C120.394 16.4132 120.995 17.0366 121.58 17.675L122.121 18.2684L122.506 17.5678C122.587 17.4231 122.685 17.281 122.801 17.1389C122.803 17.1339 122.808 17.1289 122.811 17.1264C122.813 17.1214 122.818 17.1164 122.821 17.1139C122.939 16.9718 123.075 16.8322 123.226 16.695C123.231 16.69 123.239 16.685 123.244 16.6776C123.4 16.5379 123.571 16.4008 123.763 16.2636L123.78 16.2512C123.971 16.1165 124.18 15.9819 124.405 15.8522C124.41 15.8497 124.412 15.8472 124.417 15.8447C124.422 15.8447 124.427 15.8397 124.43 15.8372C124.493 15.8023 124.561 15.7649 124.629 15.73C124.669 15.7101 124.707 15.6901 124.744 15.6702C127.859 19.2559 129.375 22.2307 129.375 23.6969H129.382ZM131.122 9.91504C130.616 11.5633 129.314 12.8375 127.642 13.3287C126.819 13.5706 125.908 13.8898 125.031 14.2813L125.021 14.2713L124.626 14.4633C124.626 14.4633 124.603 14.4758 124.591 14.4807C124.581 14.4857 124.573 14.4907 124.563 14.4957C124.447 14.5531 124.337 14.6129 124.223 14.6752C124.191 14.6927 124.158 14.7101 124.125 14.7276C123.518 15.0568 122.997 15.4058 122.569 15.7724C122.551 15.7874 122.534 15.7998 122.516 15.8148C122.494 15.8322 122.473 15.8472 122.453 15.8647C122.259 16.0392 122.083 16.2187 121.93 16.4033C121.486 15.932 121.036 15.4732 120.583 15.0293C120.16 14.6154 119.721 14.2114 119.278 13.81C118.984 13.5432 118.687 13.2764 118.384 13.017C118.576 12.8699 118.762 12.6978 118.943 12.5083C118.959 12.4934 118.974 12.4734 118.989 12.456C119.001 12.441 119.011 12.4285 119.024 12.4136C119.422 11.9847 119.797 11.4511 120.149 10.8252C120.172 10.7853 120.195 10.7479 120.217 10.708C120.265 10.6232 120.316 10.5384 120.361 10.4512C120.366 10.4412 120.374 10.4312 120.379 10.4212C120.386 10.4113 120.391 10.3988 120.399 10.3863L120.6 9.99484L120.588 9.98486C120.998 9.12209 121.328 8.22192 121.58 7.40403C122.083 5.77076 123.39 4.49904 125.074 4.00532C126.666 3.53903 128.287 3.85072 129.528 4.86061C129.657 4.96534 129.78 5.07755 129.901 5.19474C130.022 5.31444 130.135 5.43413 130.243 5.5613C131.278 6.77316 131.595 8.35657 131.12 9.91006L131.122 9.91504Z" stroke="#E8949B" stroke-width="4" stroke-linejoin="round" mask="url(#path-9-outside-1_602_81)"/>
</svg>
