<svg width="18" height="18" viewBox="0 0 18 18" fill="none" xmlns="http://www.w3.org/2000/svg">
<path d="M0 2V16C0 17.103 0.897 18 2 18H16C17.103 18 18 17.103 18 16V2C18 0.897 17.103 0 16 0H2C0.897 0 0 0.897 0 2ZM16.002 16H2V2H16L16.002 16Z" fill="url(#paint0_linear_598_298)"/>
<path d="M12 9H14V4H9V6H12V9ZM9 12H6V9H4V14H9V12Z" fill="url(#paint1_linear_598_298)"/>
<defs>
<linearGradient id="paint0_linear_598_298" x1="9" y1="0" x2="9" y2="18" gradientUnits="userSpaceOnUse">
<stop stop-color="#081621"/>
<stop offset="1" stop-color="#172941"/>
</linearGradient>
<linearGradient id="paint1_linear_598_298" x1="9" y1="0" x2="9" y2="18" gradientUnits="userSpaceOnUse">
<stop stop-color="#081621"/>
<stop offset="1" stop-color="#172941"/>
</linearGradient>
</defs>
</svg>
