<svg width="24" height="24" viewBox="0 0 24 24" fill="none" xmlns="http://www.w3.org/2000/svg">
<path d="M21.5333 9.48002H19.3333C19.3333 9.28907 19.2561 9.10593 19.1185 8.97091C18.981 8.83588 18.7945 8.76002 18.6 8.76002H12.7333C12.5388 8.76002 12.3523 8.83588 12.2148 8.97091C12.0773 9.10593 12 9.28907 12 9.48002H6.13333V5.52003C6.13333 5.23359 6.24923 4.95889 6.45552 4.75635C6.66181 4.55382 6.9416 4.44003 7.23333 4.44003C7.49115 4.439 7.74171 4.52377 7.94414 4.68051C8.14658 4.83726 8.28894 5.05673 8.348 5.30313C8.38828 5.48868 8.50153 5.65112 8.66313 5.75514C8.82472 5.85917 9.0216 5.89637 9.21098 5.85866C9.40035 5.82095 9.56692 5.71138 9.67447 5.55377C9.78202 5.39615 9.82186 5.20323 9.78533 5.01693C9.66082 4.444 9.3391 3.93067 8.8743 3.56333C8.4095 3.19599 7.83 2.99707 7.23333 3.00003C6.55261 3.00003 5.89977 3.26553 5.41843 3.73812C4.93708 4.21071 4.66667 4.85168 4.66667 5.52003V9.48002H2.46667C2.07768 9.48002 1.70463 9.63173 1.42958 9.90179C1.15452 10.1718 1 10.5381 1 10.92V13.8C1.00146 15.1363 1.54276 16.4174 2.50513 17.3622C3.4675 18.3071 4.77234 18.8386 6.13333 18.84V20.28C6.13333 20.471 6.2106 20.6541 6.34812 20.7891C6.48565 20.9241 6.67217 21 6.86667 21C7.06116 21 7.24768 20.9241 7.38521 20.7891C7.52274 20.6541 7.6 20.471 7.6 20.28V18.84H16.4V20.28C16.4 20.471 16.4773 20.6541 16.6148 20.7891C16.7523 20.9241 16.9388 21 17.1333 21C17.3278 21 17.5144 20.9241 17.6519 20.7891C17.7894 20.6541 17.8667 20.471 17.8667 20.28V18.84C19.2277 18.8386 20.5325 18.3071 21.4949 17.3622C22.4572 16.4174 22.9985 15.1363 23 13.8V10.92C23 10.5381 22.8455 10.1718 22.5704 9.90179C22.2954 9.63173 21.9223 9.48002 21.5333 9.48002ZM17.8667 10.2V13.08H13.4667V10.2H17.8667ZM21.5333 13.8C21.5333 14.2728 21.4385 14.7409 21.2542 15.1777C21.07 15.6144 20.7999 16.0113 20.4594 16.3456C20.1189 16.6799 19.7147 16.9451 19.2698 17.126C18.825 17.3069 18.3482 17.4 17.8667 17.4H6.13333C5.16087 17.4 4.22824 17.0207 3.54061 16.3456C2.85298 15.6705 2.46667 14.7548 2.46667 13.8V10.92H12V13.8C12 13.991 12.0773 14.1741 12.2148 14.3091C12.3523 14.4442 12.5388 14.52 12.7333 14.52H18.6C18.7945 14.52 18.981 14.4442 19.1185 14.3091C19.2561 14.1741 19.3333 13.991 19.3333 13.8V10.92H21.5333V13.8Z" fill="url(#paint0_linear_598_293)"/>
<defs>
<linearGradient id="paint0_linear_598_293" x1="12" y1="3" x2="12" y2="21" gradientUnits="userSpaceOnUse">
<stop stop-color="#081621"/>
<stop offset="1" stop-color="#172941"/>
</linearGradient>
</defs>
</svg>
