<svg width="16" height="16" viewBox="0 0 16 16" fill="none" xmlns="http://www.w3.org/2000/svg">
<path d="M15.0772 10.3691L11.4549 8.74523L11.441 8.73907C11.2056 8.63757 10.9484 8.5967 10.6931 8.62022C10.4378 8.64373 10.1924 8.73088 9.97944 8.87369C9.94959 8.89368 9.92083 8.91525 9.89329 8.93831L8.1771 10.3999C7.17708 9.85756 6.14398 8.83292 5.60089 7.84521L7.06708 6.1021C7.09064 6.07396 7.11248 6.04442 7.13246 6.01363C7.27153 5.80144 7.35596 5.55815 7.37824 5.30543C7.40052 5.0527 7.35995 4.79839 7.26016 4.56514C7.25779 4.56067 7.25573 4.55605 7.254 4.5513L5.63089 0.922758C5.49766 0.619309 5.27027 0.366814 4.98239 0.202643C4.6945 0.0384711 4.3614 -0.0286541 4.0324 0.0112009C2.91574 0.157891 1.89065 0.706041 1.1486 1.55327C0.406542 2.40051 -0.00173973 3.48889 5.57248e-06 4.61514C5.57248e-06 10.893 5.10704 16 11.3849 16C12.5111 16.0017 13.5995 15.5935 14.4467 14.8514C15.294 14.1093 15.8421 13.0843 15.9888 11.9676C16.0287 11.6386 15.9615 11.3055 15.7974 11.0176C15.6332 10.7297 15.3807 10.5023 15.0772 10.3691ZM11.3849 14.1538C8.85598 14.1507 6.43156 13.1448 4.64338 11.3566C2.8552 9.56844 1.84925 7.14402 1.8462 4.61514C1.84444 3.97782 2.0608 3.35908 2.45935 2.86173C2.85789 2.36439 3.41462 2.0184 4.03701 1.88124L5.48474 5.11208L4.01086 6.8675C3.98704 6.89589 3.96494 6.92568 3.9447 6.95673C3.79943 7.1787 3.71402 7.43446 3.69677 7.69918C3.67952 7.9639 3.73101 8.22858 3.84624 8.46753C4.57087 9.95064 6.06398 11.4337 7.56247 12.1599C7.80301 12.274 8.06903 12.3236 8.33452 12.3041C8.6 12.2845 8.85587 12.1964 9.07712 12.0484C9.10686 12.0283 9.13538 12.0065 9.1625 11.983L10.8879 10.516L14.1188 11.963C13.9816 12.5854 13.6356 13.1421 13.1383 13.5407C12.6409 13.9392 12.0222 14.1556 11.3849 14.1538Z" fill="url(#paint0_linear_289_460)"/>
<defs>
<linearGradient id="paint0_linear_289_460" x1="8" y1="0" x2="8" y2="16" gradientUnits="userSpaceOnUse">
<stop stop-color="#081621"/>
<stop offset="1" stop-color="#172941"/>
</linearGradient>
</defs>
</svg>
