<svg width="17" height="19" viewBox="0 0 17 19" fill="none" xmlns="http://www.w3.org/2000/svg">
<path fill-rule="evenodd" clip-rule="evenodd" d="M5.47659 11.3613C5.74403 11.2925 6.02431 11.235 6.32033 11.1877C6.41882 11.1719 6.53334 11.1591 6.6729 11.1491C7.04056 11.1226 7.5826 11.1151 8.46636 11.122L8.71191 11.1242C10.1283 11.1385 10.7869 11.1693 11.3782 11.3083C11.4331 11.3212 11.4874 11.335 11.5417 11.3499C11.7698 11.4122 11.9975 11.4923 12.2656 11.5956C15.0156 12.6548 16.9529 15.3057 16.9966 18.069C17.0067 18.7052 17.005 18.7137 16.8369 18.8561L16.667 19H0.333011L0.163118 18.8561C-0.00495923 18.7137 -0.00665455 18.7052 0.00339616 18.069C0.0418432 15.6328 1.58911 13.2102 3.89847 11.9699C4.38425 11.709 4.90064 11.5092 5.47659 11.3613ZM10.6311 13.2032L8.69178 13.1241C7.25026 13.1097 6.81578 13.1339 6.63608 13.1626C5.88641 13.2824 5.32895 13.4718 4.84475 13.7319C3.4966 14.4559 2.53975 15.705 2.17075 17H14.8318C14.4081 15.4983 13.2008 14.099 11.5468 13.462L10.6311 13.2032Z" fill="url(#paint0_linear_289_456)"/>
<path fill-rule="evenodd" clip-rule="evenodd" d="M11.2299 9.24795C12.8732 8.22472 13.838 6.32131 13.5896 4.45654C13.2924 2.22609 11.7158 0.531573 9.51506 0.0773816C9.00683 -0.0275233 7.93589 -0.0253848 7.44044 0.0814804C4.86503 0.637191 3.07801 3.06973 3.41071 5.56701C3.60343 7.0137 4.31788 8.20888 5.50295 9.06712C5.59447 9.13339 5.68428 9.19465 5.77422 9.2518C5.86062 9.30669 5.94715 9.35779 6.03545 9.40589C6.33958 9.57153 6.66482 9.7016 7.07819 9.82849C7.56286 9.97723 7.71435 9.99565 8.46973 9.99796C8.55864 9.99823 8.6429 9.99775 8.72324 9.99638C9.50254 9.98312 9.91248 9.88634 10.6094 9.57692C10.8254 9.48102 11.0325 9.37083 11.2299 9.24795ZM9.7979 7.74897C11.0529 7.19165 11.7608 5.87439 11.6071 4.72066C11.4221 3.33163 10.4772 2.31812 9.11088 2.03612C9.11088 2.03612 9.09373 2.03275 9.05445 2.02788C9.01541 2.02305 8.96478 2.01804 8.90309 2.01361C8.77866 2.00469 8.63115 1.99971 8.47692 2.00001C8.32261 2.00032 8.17637 2.00589 8.05438 2.0152C7.92168 2.02533 7.86212 2.03652 7.86212 2.03652C6.23176 2.3884 5.20796 3.91256 5.39319 5.30289C5.51325 6.20415 5.93395 6.90982 6.67596 7.44723C6.95468 7.64905 7.18464 7.76906 7.66506 7.91653C7.86192 7.97694 7.89538 7.98069 7.91142 7.98248L7.91419 7.9828C7.97231 7.98987 8.08477 7.99677 8.47586 7.99797C8.90305 7.99925 9.09302 7.9795 9.22188 7.95414C9.33797 7.9313 9.48328 7.88864 9.7979 7.74897Z" fill="url(#paint1_linear_289_456)"/>
<defs>
<linearGradient id="paint0_linear_289_456" x1="8.5" y1="0" x2="8.5" y2="19" gradientUnits="userSpaceOnUse">
<stop stop-color="#081621"/>
<stop offset="1" stop-color="#172941"/>
</linearGradient>
<linearGradient id="paint1_linear_289_456" x1="8.5" y1="0" x2="8.5" y2="19" gradientUnits="userSpaceOnUse">
<stop stop-color="#081621"/>
<stop offset="1" stop-color="#172941"/>
</linearGradient>
</defs>
</svg>
