<svg width="18" height="14" viewBox="0 0 18 14" fill="none" xmlns="http://www.w3.org/2000/svg">
	<path fill-rule="evenodd" clip-rule="evenodd" d="M17.4593 0.941401C17.8848 1.31684 18.0632 1.84983 17.9801 2.35253C17.9361 2.61879 17.8187 2.87656 17.6258 3.09792C17.6101 3.11584 17.5308 3.17431 17.3993 3.26575C16.8197 3.66895 15.2279 4.71313 13.6279 5.74854C11.9502 6.83421 10.2632 7.91032 9.72471 8.22766C9.63935 8.27796 9.58286 8.30918 9.55986 8.31834C9.45161 8.36144 9.19858 8.39673 8.99755 8.39673C8.79653 8.39673 8.54349 8.36144 8.43525 8.31834C8.41633 8.31081 8.36476 8.28191 8.28511 8.23457C7.3013 7.64991 2.02096 4.24602 0.686651 3.34014C0.510714 3.2207 0.40347 3.14473 0.383844 3.12446C0.262512 2.99915 0.168389 2.84347 0.103717 2.67232C-0.0402433 2.29133 -0.0382718 1.83369 0.13435 1.46363C0.326939 1.05068 0.673712 0.735494 1.1023 0.583872C1.28887 0.517915 2.47978 0.505538 8.97349 0.502281C9.59114 0.501974 10.1611 0.501504 10.6872 0.50107C16.4104 0.496348 16.9435 0.495909 17.2614 0.757208C17.2941 0.784044 17.3245 0.813641 17.358 0.846277C17.3879 0.875484 17.4204 0.907125 17.4593 0.941401ZM1.60852 2.15278C1.5696 2.12655 1.53426 2.10261 1.50247 2.08095C1.51049 2.06711 1.51984 2.05473 1.5304 2.04383L1.56336 2.04232C1.77575 2.03301 2.1235 2.02534 2.68827 2.01948C3.81204 2.00783 5.72495 2.00391 8.97423 2.00228C9.5894 2.00198 10.156 2.00152 10.6781 2.00111C13.8572 1.99858 15.3855 1.99736 16.1768 2.03831C16.3004 2.04471 16.392 2.05189 16.4578 2.05817L16.4669 2.0662C16.4717 2.07049 16.4759 2.07451 16.4794 2.07822L16.3992 2.13319C16.1846 2.2796 15.8813 2.48241 15.5145 2.72505C14.7824 3.20931 13.8156 3.84031 12.8414 4.47081C11.8673 5.10129 10.8897 5.72871 10.1364 6.20584C9.75906 6.44484 9.4421 6.6435 9.21141 6.78521C9.1405 6.82876 9.08004 6.86553 9.02997 6.89559L9.01536 6.89631C9.00696 6.89665 9.00098 6.89673 8.99755 6.89673C8.99412 6.89673 8.98815 6.89665 8.97974 6.89631L8.96948 6.89583C8.92272 6.86748 8.86727 6.83353 8.80314 6.79395C8.57563 6.65354 8.26106 6.45601 7.88578 6.21827C7.13642 5.74357 6.15947 5.11771 5.18409 4.4885C4.20869 3.85928 3.23819 3.22886 2.5017 2.74506C2.13281 2.50274 1.82637 2.29966 1.60852 2.15278Z" fill="#081621"/>
	<path fill-rule="evenodd" clip-rule="evenodd" d="M17.8812 12.5124C17.9924 12.2255 17.9948 12.1208 17.9807 8.18208L17.9663 4.1458L14.1708 6.59117C12.0832 7.93611 10.2614 9.08578 10.1224 9.14598C10.0548 9.17525 9.98775 9.20199 9.92124 9.22613C9.6066 9.34034 9.30293 9.39721 8.99755 9.39683C8.69524 9.39645 8.3912 9.33995 8.07323 9.22746C8.01788 9.20788 7.9621 9.1866 7.90584 9.16363C7.78301 9.11348 3.74814 6.55125 1.51242 5.11399L1.32085 4.99076C0.639153 4.55192 0.159722 4.23975 0.0709782 4.17425C0.0642235 4.16926 0.0580673 4.17671 0.052479 4.19931C0.0384609 4.25604 0.0279611 4.40833 0.0202169 4.69992C0.0141038 4.93011 0.00970797 5.24711 0.00665421 5.67244L0.00505742 5.92654C0.00191377 6.50084 0.000690159 7.24497 0.000690159 8.19891V12.2755L0.132494 12.562C0.287184 12.8983 0.602074 13.2107 0.956607 13.3795L1.20964 13.5H16.7855L17.0537 13.3725C17.4244 13.1963 17.7455 12.8625 17.8812 12.5124ZM16.4761 6.89027L14.9831 7.85213C13.9364 8.52648 12.9551 9.15274 12.2164 9.61887C11.8476 9.85162 11.5363 10.0464 11.3065 10.1879C11.1922 10.2582 11.0933 10.3184 11.0155 10.3645L11.0073 10.3693C10.9639 10.3952 10.8352 10.4719 10.7186 10.5224C9.5842 11.0135 8.48242 11.0193 7.33891 10.5524C7.2561 10.5185 7.18917 10.4819 7.17961 10.4767L7.17865 10.4762C7.15571 10.4637 7.1349 10.4519 7.11982 10.4432C7.0887 10.4252 7.05388 10.4044 7.01937 10.3836C6.94893 10.3411 6.85582 10.2838 6.74614 10.2157C6.52555 10.0789 6.222 9.88858 5.8645 9.66328C5.14868 9.21219 4.20737 8.61511 3.26058 8.01218C2.66819 7.63493 2.06115 7.24752 1.50176 6.88935C1.50102 7.27275 1.50069 7.70732 1.50069 8.19891V11.9404C1.50676 11.9482 1.51517 11.9579 1.52599 11.9686C1.53754 11.9801 1.54983 11.9907 1.56204 12H16.4378C16.448 11.9925 16.4581 11.9839 16.4673 11.9749C16.4709 11.917 16.4751 11.8249 16.4783 11.6822C16.4905 11.1534 16.4878 10.1701 16.4807 8.18743L16.4761 6.89027Z" fill="#081621"/>
</svg>
