<svg width="327" height="103" viewBox="0 0 327 103" fill="none" xmlns="http://www.w3.org/2000/svg">
<path d="M132.35 33.2179L125.525 33.2179L125.525 44.9197L113.012 44.9197L113.012 0.880778L133.235 0.880778C137.237 0.880778 140.713 1.55185 143.662 2.89399C146.611 4.19419 148.887 6.08157 150.488 8.55614C152.089 10.9888 152.889 13.8618 152.889 17.1752C152.889 20.3628 152.131 23.1519 150.614 25.5426C149.139 27.8913 147.012 29.7368 144.231 31.0789L153.774 44.9197L140.376 44.9197L132.35 33.2179ZM140.25 17.1752C140.25 15.12 139.597 13.5262 138.291 12.3938C136.984 11.2614 135.046 10.6952 132.476 10.6952L125.525 10.6952L125.525 23.5923L132.476 23.5923C135.046 23.5923 136.984 23.047 138.291 21.9566C139.597 20.8241 140.25 19.2303 140.25 17.1752Z" fill="#FDF6E9"/>
<path d="M207.055 45.8005C202.421 45.8005 198.25 44.8358 194.542 42.9065C190.877 40.9352 187.991 38.209 185.884 34.7279C183.778 31.2467 182.725 27.3041 182.725 22.9003C182.725 18.4964 183.778 14.5538 185.884 11.0726C187.991 7.59148 190.877 4.88622 194.542 2.9569C198.25 0.985633 202.421 0 207.055 0C211.1 0 214.744 0.713011 217.988 2.13904C221.233 3.56506 223.929 5.62021 226.078 8.30449L218.115 15.4765C215.25 12.0373 211.774 10.3177 207.687 10.3177C205.286 10.3177 203.137 10.842 201.241 11.8905C199.387 12.9391 197.934 14.428 196.881 16.3573C195.87 18.2447 195.364 20.4257 195.364 22.9003C195.364 25.3748 195.87 27.5768 196.881 29.5061C197.934 31.3935 199.387 32.8614 201.241 33.91C203.137 34.9585 205.286 35.4828 207.687 35.4828C211.774 35.4828 215.25 33.7632 218.115 30.324L226.078 37.496C223.929 40.1803 221.233 42.2354 217.988 43.6615C214.744 45.0875 211.1 45.8005 207.055 45.8005Z" fill="#FDF6E9"/>
<path d="M275.642 0.880778L275.642 44.9197L263.129 44.9197V27.7445L246.066 27.7445L246.066 44.9197L233.553 44.9197L233.553 0.880778L246.066 0.880778L246.066 17.4268L263.129 17.4268L263.129 0.880778L275.642 0.880778Z" fill="#FDF6E9"/>
<path d="M310.063 29.1286V44.9197L297.55 44.9197V28.9399L280.677 0.880778L293.885 0.880778L304.375 18.3705L314.866 0.880778L327 0.880778L310.063 29.1286Z" fill="#FDF6E9"/>
<path fill-rule="evenodd" clip-rule="evenodd" d="M161.688 0.880778L168.986 0.880775L168.986 17.6575L174.201 17.6575L174.201 44.9197L161.688 44.9197L161.688 0.880778Z" fill="#FDF6E9"/>
<path d="M11.8031 102.441L7.85225 96.9184C7.40778 96.9675 6.94685 96.9921 6.46946 96.9921L1.82725 96.9921L1.82725 102.441H0L0 85.2597L6.46946 85.2597C8.67534 85.2597 10.4038 85.7834 11.6549 86.8306C12.906 87.8778 13.5316 89.3178 13.5316 91.1504C13.5316 92.4922 13.1859 93.6294 12.4945 94.5621C11.8195 95.4785 10.8483 96.1412 9.58073 96.5503L13.8032 102.441L11.8031 102.441ZM6.42008 95.4458C8.1321 95.4458 9.44081 95.0694 10.3462 94.3167C11.2516 93.564 11.7043 92.5086 11.7043 91.1504C11.7043 89.7596 11.2516 88.696 10.3462 87.9596C9.44081 87.2069 8.1321 86.8306 6.42008 86.8306L1.82725 86.8306L1.82725 95.4458L6.42008 95.4458Z" fill="#FDF6E9"/>
<path d="M46.6112 100.87L46.6112 102.441L34.3883 102.441L34.3883 85.2597L46.2408 85.2597V86.8306L36.2156 86.8306L36.2156 92.9422L45.1543 92.9422L45.1543 94.4885L36.2156 94.4885L36.2156 100.87L46.6112 100.87Z" fill="#FDF6E9"/>
<path d="M78.2904 97.8511L68.6603 97.8511L66.5861 102.441H64.6848L72.5864 85.2597H74.389L82.2906 102.441H80.3646L78.2904 97.8511ZM77.6237 96.3784L73.4754 87.1497L69.327 96.3784L77.6237 96.3784Z" fill="#FDF6E9"/>
<path d="M101.694 85.2597H103.521L103.521 100.87L113.201 100.87V102.441L101.694 102.441L101.694 85.2597Z" fill="#FDF6E9"/>
<path d="M168.008 100.87V102.441L155.785 102.441L155.785 85.2597L167.638 85.2597V86.8306L157.613 86.8306L157.613 92.9422L166.551 92.9422V94.4885L157.613 94.4885V100.87L168.008 100.87Z" fill="#FDF6E9"/>
<path d="M193.613 102.588C192.329 102.588 191.094 102.384 189.909 101.975C188.74 101.566 187.835 101.026 187.193 100.355L187.909 98.9556C188.535 99.5774 189.366 100.085 190.403 100.477C191.44 100.854 192.51 101.042 193.613 101.042C195.16 101.042 196.321 100.764 197.095 100.207C197.868 99.6347 198.255 98.8984 198.255 97.9984C198.255 97.3111 198.041 96.763 197.613 96.3539C197.202 95.9448 196.691 95.6339 196.082 95.4212C195.473 95.1921 194.625 94.9467 193.539 94.6849C192.238 94.3576 191.201 94.0467 190.428 93.7522C189.654 93.4413 188.987 92.9749 188.428 92.3531C187.884 91.7313 187.613 90.8886 187.613 89.825C187.613 88.9578 187.843 88.1724 188.304 87.4688C188.765 86.7488 189.473 86.1761 190.428 85.7506C191.382 85.3252 192.568 85.1125 193.983 85.1125C194.971 85.1125 195.934 85.2516 196.872 85.5297C197.827 85.7915 198.65 86.1597 199.342 86.6342L198.724 88.0824C198 87.6078 197.226 87.256 196.403 87.0269C195.58 86.7815 194.774 86.6588 193.983 86.6588C192.469 86.6588 191.325 86.9533 190.551 87.5424C189.794 88.1151 189.415 88.8596 189.415 89.7759C189.415 90.4632 189.621 91.0195 190.033 91.445C190.461 91.8541 190.987 92.1731 191.613 92.4022C192.255 92.6149 193.111 92.8522 194.181 93.114C195.448 93.4249 196.469 93.7358 197.243 94.0467C198.033 94.3412 198.7 94.7994 199.243 95.4212C199.786 96.0266 200.058 96.853 200.058 97.9002C200.058 98.7675 199.819 99.5611 199.342 100.281C198.881 100.985 198.165 101.549 197.193 101.975C196.222 102.384 195.029 102.588 193.613 102.588Z" fill="#FDF6E9"/>
<path d="M223.7 86.8306L217.626 86.8306V85.2597L231.602 85.2597V86.8306L225.527 86.8306L225.527 102.441H223.7L223.7 86.8306Z" fill="#FDF6E9"/>
<path d="M261.037 97.8511L251.407 97.8511L249.333 102.441H247.431L255.333 85.2597H257.136L265.037 102.441H263.111L261.037 97.8511ZM260.37 96.3784L256.222 87.1497L252.074 96.3784L260.37 96.3784Z" fill="#FDF6E9"/>
<path d="M286.931 86.8306L280.856 86.8306V85.2597L294.832 85.2597V86.8306L288.758 86.8306V102.441H286.931V86.8306Z" fill="#FDF6E9"/>
<path d="M327 100.87V102.441L314.295 102.441V85.2597L326.518 85.2597V86.8306L316.123 86.8306V92.9422L325.061 92.9422V94.4885L316.123 94.4885V100.87L327 100.87Z" fill="#FDF6E9"/>
<path d="M0 0.354004L12.513 0.354004L12.513 34.5156L33.6209 34.5156L33.6209 44.3929L0 44.3929L0 0.354004Z" fill="url(#paint0_linear_29_1147)"/>
<path d="M108.526 0.354004L89.5671 44.3929L77.2436 44.3929L58.3477 0.354004L71.8719 0.354004L83.8793 29.0422L96.1396 0.354004L108.526 0.354004Z" fill="url(#paint1_linear_29_1147)"/>
<path d="M40.4684 0.354004L40.4684 44.3929L52.9814 44.3929L52.9814 0.354004L40.4684 0.354004Z" fill="url(#paint2_linear_29_1147)"/>
<defs>
<linearGradient id="paint0_linear_29_1147" x1="54.2631" y1="0.354004" x2="54.2631" y2="44.3929" gradientUnits="userSpaceOnUse">
<stop stop-color="#FCD07D"/>
<stop offset="1" stop-color="#5B391E"/>
</linearGradient>
<linearGradient id="paint1_linear_29_1147" x1="54.2631" y1="0.354004" x2="54.2631" y2="44.3929" gradientUnits="userSpaceOnUse">
<stop stop-color="#FCD07D"/>
<stop offset="1" stop-color="#5B391E"/>
</linearGradient>
<linearGradient id="paint2_linear_29_1147" x1="54.2631" y1="0.354004" x2="54.2631" y2="44.3929" gradientUnits="userSpaceOnUse">
<stop stop-color="#FCD07D"/>
<stop offset="1" stop-color="#5B391E"/>
</linearGradient>
</defs>
</svg>
