<svg width="24" height="24" xmlns="http://www.w3.org/2000/svg"><g clip-path="url(#BuiltInWardrobe__a)"><path d="M18 2a2 2 0 0 1 1.995 1.85L20 4v16a2 2 0 0 1-1.85 1.995L18 22H6a2 2 0 0 1-1.995-1.85L4 20V4a2 2 0 0 1 1.85-1.995L6 2h12Zm0 15.5h-5V20h5v-2.5ZM11 4H6v16h5V4Zm7 9h-5v2.5h5V13Zm-9-2a1 1 0 0 1 .117 1.993L9 13H8a1 1 0 0 1-.117-1.993L8 11h1Zm9-2.5h-5V11h5V8.5ZM18 4h-5v2.5h5V4Z" fill="#333"/></g><defs><clipPath id="BuiltInWardrobe__a"><rect width="24" height="24" fill="#fff"/></clipPath></defs></svg>