<svg width="24" height="24" xmlns="http://www.w3.org/2000/svg"><g clip-path="url(#FullyFurnished__a)"><path d="M4.429 11.571H2.714A1.714 1.714 0 0 0 1 13.286v8.571h5.143M4.429 11.571a1.714 1.714 0 0 1 1.714 1.715v8.571M4.429 11.571V8.143A5.143 5.143 0 0 1 9.57 3h5.143a5.143 5.143 0 0 1 5.143 5.143v3.428M6.143 21.857h12m1.714-10.286h1.714a1.714 1.714 0 0 1 1.715 1.715v8.571h-5.143m1.714-10.286a1.714 1.714 0 0 0-1.714 1.715v8.571M6.143 15h12" stroke="#333" stroke-width="2" stroke-linecap="round" stroke-linejoin="round"/></g><defs><clipPath id="FullyFurnished__a"><rect width="24" height="24" fill="#fff"/></clipPath></defs></svg>