<svg width="24" height="24" xmlns="http://www.w3.org/2000/svg"><path d="M7.5 19.5v-5l4 2.5-4 2.5ZM13 10a2.893 2.893 0 0 1-2.125-.875A2.893 2.893 0 0 1 10 7c0-.833.292-1.542.875-2.125A2.893 2.893 0 0 1 13 4h1.25v1.5H13c-.417 0-.771.146-1.063.438A1.443 1.443 0 0 0 11.5 7c0 .417.146.771.438 1.063.292.292.646.438 1.062.437h1.25V10H13Zm2.75 0V8.5H17c.417 0 .771-.146 1.063-.438.292-.292.438-.646.437-1.062 0-.417-.146-.771-.438-1.063A1.443 1.443 0 0 0 17 5.5h-1.25V4H17c.833 0 1.542.292 2.125.875S20 6.167 20 7s-.292 1.542-.875 2.125A2.893 2.893 0 0 1 17 10h-1.25ZM13 7.75v-1.5h4v1.5h-4ZM16.1 14v-2H21V3H9v9H7V3c0-.55.196-1.021.588-1.413A1.922 1.922 0 0 1 9 1h12c.55 0 1.021.196 1.413.588.392.392.588.863.587 1.412v9c0 .55-.196 1.021-.588 1.413A1.922 1.922 0 0 1 21 14h-4.9ZM3 23c-.55 0-1.021-.196-1.413-.588A1.922 1.922 0 0 1 1 21v-8c0-.55.196-1.021.588-1.413A1.922 1.922 0 0 1 3 11h12c.55 0 1.021.196 1.413.588.392.392.588.863.587 1.412v8c0 .55-.196 1.021-.588 1.413A1.922 1.922 0 0 1 15 23H3Zm0-2h12v-8H3v8Z" fill="#333"/></svg>