<svg width="24" height="24" xmlns="http://www.w3.org/2000/svg"><path d="M3.175 20.85c-.3.083-.57.017-.812-.2-.241-.217-.362-.5-.363-.85 0-.183.071-.362.213-.537a1.45 1.45 0 0 1 .562-.413c.333-.133.663-.308.988-.525.325-.217.838-.325 1.537-.325.933 0 1.575.167 1.925.5.35.333.825.5 1.425.5.6 0 1.075-.167 1.425-.5.35-.333.992-.5 1.925-.5s1.575.167 1.925.5c.35.333.825.5 1.425.5.6 0 1.075-.167 1.425-.5.35-.333.992-.5 1.925-.5.7 0 1.213.108 1.538.325.325.217.654.392.987.525.233.1.421.233.563.4.142.167.213.35.212.55 0 .35-.12.633-.362.85a.822.822 0 0 1-.813.2c-.467-.133-.825-.308-1.075-.525-.25-.217-.6-.325-1.05-.325-.6 0-1.075.167-1.425.5-.35.333-.992.5-1.925.5s-1.575-.167-1.925-.5c-.35-.333-.825-.5-1.425-.5-.6 0-1.075.167-1.425.5-.35.333-.992.5-1.925.5s-1.575-.167-1.925-.5c-.35-.333-.825-.5-1.425-.5-.45 0-.8.108-1.05.325-.25.217-.608.392-1.075.525Zm0-4.5c-.3.083-.57.017-.812-.2-.241-.217-.362-.5-.363-.85 0-.183.071-.362.213-.537a1.45 1.45 0 0 1 .562-.413c.333-.133.663-.308.988-.525.325-.217.838-.325 1.537-.325.933 0 1.58.167 1.938.5.359.333.83.5 1.412.5.6 0 1.075-.167 1.425-.5.35-.333.992-.5 1.925-.5s1.575.167 1.925.5c.35.333.825.5 1.425.5.6 0 1.075-.167 1.425-.5.35-.333.992-.5 1.925-.5.7 0 1.213.108 1.538.325.325.217.654.392.987.525.233.1.421.233.563.4.142.167.213.35.212.55 0 .35-.12.633-.362.85a.822.822 0 0 1-.813.2c-.467-.133-.825-.308-1.075-.525-.25-.217-.6-.325-1.05-.325-.6 0-1.062.167-1.387.5-.325.333-.979.5-1.963.5-.95 0-1.596-.167-1.937-.5-.341-.333-.812-.5-1.413-.5-.633 0-1.104.167-1.413.5-.309.333-.954.5-1.937.5-.983 0-1.638-.167-1.963-.5-.325-.333-.788-.5-1.387-.5-.45 0-.8.108-1.05.325-.25.217-.608.392-1.075.525ZM8.65 12c-.35 0-.658-.054-.925-.163A5.047 5.047 0 0 1 6.9 11.4l3.325-3.325-1-1a6.053 6.053 0 0 0-1.287-1 4.334 4.334 0 0 0-1.538-.5 1.448 1.448 0 0 1-.85-.438 1.2 1.2 0 0 1-.35-.862c0-.367.13-.671.388-.913.259-.242.554-.346.887-.312.883.083 1.65.271 2.3.563.65.292 1.292.754 1.925 1.387l6.4 6.4c-.283.183-.558.33-.825.438a2.424 2.424 0 0 1-.925.162c-.6 0-1.075-.167-1.425-.5-.35-.333-.992-.5-1.925-.5s-1.575.167-1.925.5c-.35.333-.825.5-1.425.5Zm8.05-4c-.7 0-1.292-.242-1.775-.725C14.442 6.792 14.2 6.2 14.2 5.5c0-.683.242-1.271.725-1.763A2.389 2.389 0 0 1 16.7 3c.7 0 1.292.246 1.775.738.483.492.725 1.08.725 1.762 0 .7-.242 1.292-.725 1.775C17.992 7.758 17.4 8 16.7 8Z" fill="#333"/></svg>