<svg width="24" height="24" xmlns="http://www.w3.org/2000/svg"><path d="M5.25 3A3.25 3.25 0 0 0 2 6.25v6.5A3.25 3.25 0 0 0 5.25 16h2.243a1.656 1.656 0 0 1-1.65 1.5H3.25a.75.75 0 0 0-.75.75v3c0 .414.336.75.75.75h3A5.75 5.75 0 0 0 12 16.25V16h1.75a3.25 3.25 0 0 0 3.235-2.934l3.88 2.327A.75.75 0 0 0 22 14.75V4.25a.75.75 0 0 0-1.136-.643l-3.88 2.327A3.25 3.25 0 0 0 13.75 3h-8.5ZM17 7.675l3.5-2.1v7.85l-3.5-2.1v-3.65ZM6.25 20.5H4V19h1.844c1.69 0 3.07-1.33 3.152-3H10.5v.25a4.25 4.25 0 0 1-4.25 4.25ZM3.5 6.25c0-.966.784-1.75 1.75-1.75h8.5c.966 0 1.75.784 1.75 1.75v6.5a1.75 1.75 0 0 1-1.75 1.75h-8.5a1.75 1.75 0 0 1-1.75-1.75v-6.5Z" fill="#333"/><path fill-rule="evenodd" clip-rule="evenodd" d="M2.775 3.775A3.5 3.5 0 0 1 5.25 2.75h8.5a3.5 3.5 0 0 1 3.424 2.778l3.561-2.135a1 1 0 0 1 1.515.857v10.5a1.002 1.002 0 0 1-1.012 1 1 1 0 0 1-.501-.143l-3.562-2.135a3.5 3.5 0 0 1-3.425 2.778h-1.5a6 6 0 0 1-6 6h-3a1 1 0 0 1-1-1v-3a1 1 0 0 1 1-1h2.593a1.407 1.407 0 0 0 1.347-1H5.25a3.5 3.5 0 0 1-3.5-3.5v-6.5a3.5 3.5 0 0 1 1.025-2.475ZM5.25 3.25a3 3 0 0 0-3 3v6.5a3 3 0 0 0 3 3h2.518l-.026.274a1.906 1.906 0 0 1-1.9 1.726H3.25a.5.5 0 0 0-.5.5v3a.5.5 0 0 0 .5.5h3a5.5 5.5 0 0 0 5.5-5.5v-.5h2a3 3 0 0 0 2.986-2.708l.039-.394 4.218 2.53a.5.5 0 0 0 .757-.428V4.25a.5.5 0 0 0-.757-.429l-4.22 2.53-.038-.393A3 3 0 0 0 13.75 3.25h-8.5Zm0 1.5a1.5 1.5 0 0 0-1.5 1.5v6.5a1.5 1.5 0 0 0 1.5 1.5h8.5a1.5 1.5 0 0 0 1.5-1.5v-6.5a1.5 1.5 0 0 0-1.5-1.5h-8.5Zm-2 1.5a2 2 0 0 1 2-2h8.5a2 2 0 0 1 2 2v6.5a2 2 0 0 1-2 2h-8.5a2 2 0 0 1-2-2v-6.5Zm17.5-1.117v8.733l-4-2.4V7.534l4-2.4Zm-3.5 2.684v3.367l3 1.8V6.016l-3 1.8ZM8.758 15.75h1.992v.5a4.501 4.501 0 0 1-4.5 4.5h-2.5v-2h2.094a2.907 2.907 0 0 0 2.902-2.762l.012-.238Zm.468.5a3.408 3.408 0 0 1-3.382 3H4.25v1h2a4 4 0 0 0 4-4H9.226Z" fill="#333"/></svg>