<svg xmlns="http://www.w3.org/2000/svg" width="24" height="24" fill="none" viewBox="0 0 24 24">
  <path fill="#333" d="M12.05 22a.956.956 0 0 1-.588-.488.965.965 0 0 1-.062-.762 4.29 4.29 0 0 0 .213-1.35c-.008-.417-.146-.85-.413-1.3-.5-.767-.775-1.488-.825-2.163-.05-.675.058-1.438.325-2.287a.953.953 0 0 1 .488-.587.973.973 0 0 1 .762-.063.956.956 0 0 1 .588.488.965.965 0 0 1 .062.762c-.15.483-.229.93-.237 1.338-.008.409.138.846.437 1.312.467.75.73 1.471.788 2.163.059.692-.037 1.454-.288 2.287a.956.956 0 0 1-.488.588.965.965 0 0 1-.762.062Zm-4.4 0a.956.956 0 0 1-.588-.488A.965.965 0 0 1 7 20.75a5.33 5.33 0 0 0 .213-1.35c.009-.433-.129-.867-.413-1.3-.5-.733-.77-1.454-.812-2.163-.041-.709.063-1.471.312-2.287a.956.956 0 0 1 .488-.588A.965.965 0 0 1 7.55 13a.956.956 0 0 1 .588.488.965.965 0 0 1 .062.762 5.714 5.714 0 0 0-.225 1.35c-.017.433.125.867.425 1.3.483.733.75 1.458.8 2.175.05.717-.05 1.475-.3 2.275a.953.953 0 0 1-.487.587.975.975 0 0 1-.763.063Zm8.7 0a.956.956 0 0 1-.588-.488.965.965 0 0 1-.062-.762 5.3 5.3 0 0 0 .213-1.35c.009-.433-.129-.867-.413-1.3-.5-.733-.771-1.454-.813-2.163-.042-.709.062-1.471.313-2.287a.956.956 0 0 1 .488-.588.965.965 0 0 1 .762-.062.956.956 0 0 1 .588.488.965.965 0 0 1 .062.762c-.15.483-.229.933-.237 1.35-.008.417.138.85.437 1.3.467.733.73 1.458.788 2.175.059.717-.037 1.475-.288 2.275a.956.956 0 0 1-.488.588.965.965 0 0 1-.762.062ZM5 5v1h14V5H5Zm3.1 3 .3 1h7.2l.3-1H8.1Zm.3 3c-.433 0-.825-.13-1.175-.388A1.98 1.98 0 0 1 6.5 9.6L6 8H5a1.93 1.93 0 0 1-1.413-.587A1.921 1.921 0 0 1 3 6V3h18v3c0 .55-.196 1.021-.588 1.413A1.922 1.922 0 0 1 19 8h-1l-.65 1.7c-.15.383-.392.696-.725.938A1.863 1.863 0 0 1 15.5 11H8.4Z"/>
</svg>
