<svg width="25" height="24" xmlns="http://www.w3.org/2000/svg"><mask id="Washer and dryer__a" style="mask-type:luminance" maskUnits="userSpaceOnUse" x="3" y="1" width="19" height="22"><path d="M19.39 2h-14a1 1 0 0 0-1 1v18a1 1 0 0 0 1 1h14a1 1 0 0 0 1-1V3a1 1 0 0 0-1-1Z" stroke="#fff" stroke-width="1.5"/><path d="M4.39 7.75h16" stroke="#fff" stroke-width="1.5" stroke-linecap="round" stroke-linejoin="round"/><path d="M14.39 6a1 1 0 1 0 0-2 1 1 0 0 0 0 2Zm3 0a1 1 0 1 0 0-2 1 1 0 0 0 0 2Z" fill="#fff"/><path d="M12.39 18.5a3.5 3.5 0 1 0 0-7 3.5 3.5 0 0 0 0 7Z" stroke="#fff" stroke-width="1.5"/></mask><g mask="url(#Washer and dryer__a)"><path d="M0 0h24.5v24H0V0Z" fill="#333"/></g></svg>