<svg xmlns="http://www.w3.org/2000/svg" width="25" height="24" fill="none" viewBox="0 0 25 24">
  <mask id="a" width="19" height="22" x="3" y="1" maskUnits="userSpaceOnUse" style="mask-type:luminance">
    <path stroke="#fff" stroke-width="1.5" d="M19.39 2h-14a1 1 0 0 0-1 1v18a1 1 0 0 0 1 1h14a1 1 0 0 0 1-1V3a1 1 0 0 0-1-1Z"/>
    <path stroke="#fff" stroke-linecap="round" stroke-linejoin="round" stroke-width="1.5" d="M4.39 7.75h16"/>
    <path fill="#fff" d="M14.39 6a1 1 0 1 0 0-2 1 1 0 0 0 0 2Zm3 0a1 1 0 1 0 0-2 1 1 0 0 0 0 2Z"/>
    <path stroke="#fff" stroke-width="1.5" d="M12.39 18.5a3.5 3.5 0 1 0 0-7 3.5 3.5 0 0 0 0 7Z"/>
  </mask>
  <g mask="url(#a)">
    <path fill="#333" d="M0 0h24.5v24H0V0Z"/>
  </g>
</svg>
