<svg width="24" height="24" xmlns="http://www.w3.org/2000/svg"><path d="m6.35 15.35-2.1-2.15a11.076 11.076 0 0 1 3.463-2.337c1.325-.575 2.754-.862 4.287-.863 1.533 0 2.963.292 4.288.875a11.032 11.032 0 0 1 3.462 2.375l-2.1 2.1a8.112 8.112 0 0 0-2.55-1.725c-.967-.417-2-.625-3.1-.625s-2.133.208-3.1.625a8.113 8.113 0 0 0-2.55 1.725ZM2.1 11.1 0 9a16.675 16.675 0 0 1 5.375-3.675C7.425 4.442 9.633 4 12 4s4.575.442 6.625 1.325A16.675 16.675 0 0 1 24 9l-2.1 2.1a14.114 14.114 0 0 0-4.463-3.013C15.745 7.362 13.933 6.999 12 7c-1.933 0-3.746.363-5.438 1.088A14.11 14.11 0 0 0 2.1 11.1ZM12 21l3.525-3.55a5.009 5.009 0 0 0-1.575-1.063A4.86 4.86 0 0 0 12 16c-.7 0-1.35.13-1.95.388-.6.259-1.125.613-1.575 1.062L12 21Z" fill="#333"/></svg>